<?xml version="1.0" encoding="utf-8"?>

<svg xmlns="http://www.w3.org/2000/svg" xmlns:xlink="http://www.w3.org/1999/xlink">

<symbol id="icons--icon1" xmlns="http://www.w3.org/2000/svg" width="38.593" height="35.82" viewBox="0 0 38.593 35.82">
  <defs>
    <style>
      .cls-1 {
        fill: #fff;
        fill-rule: evenodd;
      }
    </style>
  </defs>
  <path id="Icon" class="cls-1" d="M554.774,1446.06l-1.237,6.88h26.141l-0.818,4.07H552.653l-1.366,6.92h25.795l-0.921,6.58-10.849,3.69-8.9-3.4,0.775-3.72h-6.925l-1.187,8.33,15.079,6.47,17.492-6.47,6-29.35H554.774Z" transform="translate(-549.063 -1446.06)"/>
</symbol>

<symbol id="icons--icon2" xmlns="http://www.w3.org/2000/svg" width="40" height="39" viewBox="0 0 40 39">
  <defs>
    <style>
      .cls-1 {
        fill: #ccc;
        fill-rule: evenodd;
      }
    </style>
  </defs>
  <path id="stylus" class="cls-1" d="M36.717,11.288l-8.4-8.395,2.4-2.4,8.4,8.394Zm-2.4,2.4-1.2,13.191c-10.793,0-26.384,11.993-26.384,11.993l-1.992-1.99L15,26.624a3.594,3.594,0,1,0-2.015-2.015L2.73,34.867,0.738,32.875S12.732,17.285,12.732,6.491l13.192-1.2Z"/>
</symbol>

<symbol id="icons--icon3" xmlns="http://www.w3.org/2000/svg" width="39.81" height="37.31" viewBox="0 0 39.81 37.31">
  <defs>
    <style>
      .cls-1 {
        fill: #fff;
        fill-rule: evenodd;
      }
    </style>
  </defs>
  <path id="alarm-clock" class="cls-1" d="M1405.55,1464.37l4.24,4.25-3.52,3.51-5.7-5.7v-8.49h4.98v6.43Zm9.95-18.87a7.46,7.46,0,0,1,4.28,13.57,17.922,17.922,0,0,0-10.39-10.39,7.455,7.455,0,0,1,6.11-3.18m-18.77,3.18a17.938,17.938,0,0,0-10.4,10.39,7.463,7.463,0,1,1,10.4-10.39m6.33,1.8a14.926,14.926,0,0,0-11.53,24.41l-0.91,7.92h2.49l2.48-4.48a14.932,14.932,0,0,0,14.93,0l2.49,4.48h2.49l-0.92-7.92a14.926,14.926,0,0,0-11.52-24.41m0,24.87a9.95,9.95,0,1,1,9.95-9.95,9.944,9.944,0,0,1-9.95,9.95" transform="translate(-1383.16 -1445.5)"/>
</symbol>

<symbol id="icons--icon4" xmlns="http://www.w3.org/2000/svg" width="43.87" height="43.87" viewBox="0 0 43.87 43.87">
  <defs>
    <style>
      .cls-1 {
        fill: #fff;
        fill-rule: evenodd;
      }
    </style>
  </defs>
  <path id="Icon" class="cls-1" d="M1820.38,1442.21a21.945,21.945,0,1,0,21.94,21.95,21.941,21.941,0,0,0-21.94-21.95m-8.23,21.95a8.23,8.23,0,1,1,8.23,8.23,8.224,8.224,0,0,1-8.23-8.23m25.97,7.35h0l-7.6-3.15a11.042,11.042,0,0,0,0-8.4l5.23-2.17,2.37-.99a19.256,19.256,0,0,1,0,14.71m-10.39-25.1h0l-3.15,7.6a11.037,11.037,0,0,0-4.2-.83,10.856,10.856,0,0,0-4.2.84l-1.48-3.57-1.67-4.04a19.231,19.231,0,0,1,14.7,0m-25.1,10.39,4.04,1.68,3.57,1.48a10.92,10.92,0,0,0,0,8.4l-7.61,3.15a19.256,19.256,0,0,1,0-14.71m10.4,25.1,0.98-2.37,2.17-5.23a11.037,11.037,0,0,0,4.2.83,10.856,10.856,0,0,0,4.2-.84l3.15,7.61a19.231,19.231,0,0,1-14.7,0" transform="translate(-1798.44 -1442.22)"/>
</symbol>

</svg>