<?xml version="1.0" encoding="utf-8"?>

<svg xmlns="http://www.w3.org/2000/svg" xmlns:xlink="http://www.w3.org/1999/xlink">

<symbol id="icons--icon1" xmlns="http://www.w3.org/2000/svg" width="38.593" height="35.82" viewBox="0 0 38.593 35.82">
  <defs>
    <style>
      .cls-1 {
        fill: #fff;
        fill-rule: evenodd;
      }
    </style>
  </defs>
  <path id="Icon" class="cls-1" d="M554.774,1446.06l-1.237,6.88h26.141l-0.818,4.07H552.653l-1.366,6.92h25.795l-0.921,6.58-10.849,3.69-8.9-3.4,0.775-3.72h-6.925l-1.187,8.33,15.079,6.47,17.492-6.47,6-29.35H554.774Z" transform="translate(-549.063 -1446.06)"/>
</symbol>

<symbol id="icons--icon2" xmlns="http://www.w3.org/2000/svg" width="40" height="39" viewBox="0 0 40 39">
  <defs>
    <style>
      .cls-1 {
        fill: #ccc;
        fill-rule: evenodd;
      }
    </style>
  </defs>
  <path id="stylus" class="cls-1" d="M36.717,11.288l-8.4-8.395,2.4-2.4,8.4,8.394Zm-2.4,2.4-1.2,13.191c-10.793,0-26.384,11.993-26.384,11.993l-1.992-1.99L15,26.624a3.594,3.594,0,1,0-2.015-2.015L2.73,34.867,0.738,32.875S12.732,17.285,12.732,6.491l13.192-1.2Z"/>
</symbol>

<symbol id="icons--icon3" xmlns="http://www.w3.org/2000/svg" width="39.81" height="37.31" viewBox="0 0 39.81 37.31">
  <defs>
    <style>
      .cls-1 {
        fill: #fff;
        fill-rule: evenodd;
      }
    </style>
  </defs>
  <path id="alarm-clock" class="cls-1" d="M1405.55,1464.37l4.24,4.25-3.52,3.51-5.7-5.7v-8.49h4.98v6.43Zm9.95-18.87a7.46,7.46,0,0,1,4.28,13.57,17.922,17.922,0,0,0-10.39-10.39,7.455,7.455,0,0,1,6.11-3.18m-18.77,3.18a17.938,17.938,0,0,0-10.4,10.39,7.463,7.463,0,1,1,10.4-10.39m6.33,1.8a14.926,14.926,0,0,0-11.53,24.41l-0.91,7.92h2.49l2.48-4.48a14.932,14.932,0,0,0,14.93,0l2.49,4.48h2.49l-0.92-7.92a14.926,14.926,0,0,0-11.52-24.41m0,24.87a9.95,9.95,0,1,1,9.95-9.95,9.944,9.944,0,0,1-9.95,9.95" transform="translate(-1383.16 -1445.5)"/>
</symbol>

<symbol id="icons--icon4" xmlns="http://www.w3.org/2000/svg" width="43.87" height="43.87" viewBox="0 0 43.87 43.87">
  <defs>
    <style>
      .cls-1 {
        fill: #fff;
        fill-rule: evenodd;
      }
    </style>
  </defs>
  <path id="Icon" class="cls-1" d="M1820.38,1442.21a21.945,21.945,0,1,0,21.94,21.95,21.941,21.941,0,0,0-21.94-21.95m-8.23,21.95a8.23,8.23,0,1,1,8.23,8.23,8.224,8.224,0,0,1-8.23-8.23m25.97,7.35h0l-7.6-3.15a11.042,11.042,0,0,0,0-8.4l5.23-2.17,2.37-.99a19.256,19.256,0,0,1,0,14.71m-10.39-25.1h0l-3.15,7.6a11.037,11.037,0,0,0-4.2-.83,10.856,10.856,0,0,0-4.2.84l-1.48-3.57-1.67-4.04a19.231,19.231,0,0,1,14.7,0m-25.1,10.39,4.04,1.68,3.57,1.48a10.92,10.92,0,0,0,0,8.4l-7.61,3.15a19.256,19.256,0,0,1,0-14.71m10.4,25.1,0.98-2.37,2.17-5.23a11.037,11.037,0,0,0,4.2.83,10.856,10.856,0,0,0,4.2-.84l3.15,7.61a19.231,19.231,0,0,1-14.7,0" transform="translate(-1798.44 -1442.22)"/>
</symbol>

<symbol id="icons--icon5" xmlns="http://www.w3.org/2000/svg" width="18.44" height="18.07" viewBox="0 0 18.44 18.07">
  <defs>
    <style>
      .cls-1 {
        fill: #fff;
        fill-rule: evenodd;
      }
    </style>
  </defs>
  <path id="Arrows" class="cls-1" d="M1218.94,3835.3l-0.7-.7a0.978,0.978,0,0,0-1.38,0l-6.86,6.86-6.86-6.86a0.978,0.978,0,0,0-1.38,0l-0.7.7a0.978,0.978,0,0,0,0,1.38l8.24,8.24a1.015,1.015,0,0,0,1.4,0l8.24-8.24A0.978,0.978,0,0,0,1218.94,3835.3Zm0,7.17-0.7-.69a0.96,0.96,0,0,0-1.38,0l-6.86,6.85-6.86-6.85a0.96,0.96,0,0,0-1.38,0l-0.7.69a0.99,0.99,0,0,0,0,1.39l8.24,8.23a0.99,0.99,0,0,0,1.4,0l8.24-8.23A0.99,0.99,0,0,0,1218.94,3842.47Z" transform="translate(-1200.78 -3834.31)"/>
</symbol>

<symbol id="icons--icon10" version="1.1" xmlns="http://www.w3.org/2000/svg" xmlns:xlink="http://www.w3.org/1999/xlink" x="0px" y="0px"
  viewBox="0 0 112.196 112.196" style="enable-background:new 0 0 112.196 112.196;" xml:space="preserve">
  <circle style="fill:#4176FA;" cx="56.098" cy="56.098" r="56.098"/>
  <path style="fill:#F1F2F2;" d="M76.209,46.341c-16.203,0-16.224,16.142-16.224,16.225c0,0-1.11,16.162,16.224,16.162
    c0,0,14.456,0.822,14.456-11.248h-7.423c0,0,0.246,4.544-6.786,4.544c0,0-7.423,0.494-7.423-7.341h21.879
    C90.912,64.683,93.318,46.341,76.209,46.341z M68.95,59.028c0,0,0.905-6.498,7.424-6.498c6.539,0,6.436,6.498,6.436,6.498H68.95z
    M50.404,54.875c0,0,6.436-0.473,6.436-8.04c0-7.546-5.264-11.248-11.947-11.248H22.91v42.256h21.981
    c0,0,13.428,0.412,13.428-12.481C58.32,65.362,58.896,54.875,50.404,54.875z M32.596,43.092h12.296c0,0,2.982,0,2.982,4.4
    s-1.748,5.038-3.743,5.038H32.596V43.092z M44.276,70.338h-11.68v-11.31h12.296c0,0,4.463-0.041,4.442,5.819
    C49.334,69.783,46.024,70.297,44.276,70.338z M67.12,38.075v5.203h17.438v-5.203H67.12z"/>
</symbol>

  <symbol id="icons--icon11"  viewBox="0 0 512 512" xmlns="http://www.w3.org/2000/svg"><path d="m392.425781 114.992188c15.664063-17.457032 24.796875-35.734376 28-54.496094-44.292969-37.089844-101.269531-60.496094-163.425781-60.496094-32.09375 0-62.699219 6.210938-91.011719 17.078125 47.410157 47.5 87.058594 103.742187 118.070313 164.453125 45.695312-16.523438 83.78125-39.128906 108.367187-66.539062zm0 0"/><path d="m414.75 135.03125c-27.519531 30.671875-68.425781 55.617188-117.296875 73.746094 6.074219 13.320312 11.65625 26.917968 16.910156 40.691406 25.097657-5.398438 51.109375-8.46875 77.636719-8.46875 41.761719 0 82.332031 7.085938 119.742188 20.109375.035156-1.714844.257812-3.382813.257812-5.109375 0-66.035156-25.445312-126.09375-66.773438-171.429688-6.097656 17.570313-16.21875 34.574219-30.476562 50.460938zm0 0"/><path d="m5.847656 202.113281c31.886719 5.636719 67.214844 8.886719 101.152344 8.886719 52.609375 0 103.144531-7.46875 148.183594-20.296875-31.035156-59.628906-70.933594-114.507813-118.554688-160.402344-64.808594 34.855469-114.8125 97.925781-130.78125 171.8125zm0 0"/><path d="m509.15625 291.996094c-36.1875-13.621094-76.015625-20.996094-117.15625-20.996094-23.0625 0-45.710938 2.417969-67.554688 6.832031 22.175782 66.503907 35.007813 138.386719 37.199219 211.453125 78.015625-35.292968 135.042969-109.632812 147.511719-197.289062zm0 0"/><path d="m0 256c0 78.890625 38.027344 150.511719 94.472656 197.320312 5.980469-39.785156 23.917969-78.925781 53.132813-111.683593 34.75-38.960938 82.972656-68.136719 137.582031-84.789063-5.082031-13.109375-10.632812-25.960937-16.492188-38.632812-48.796874 14.472656-103.757812 22.785156-161.695312 22.785156-35.445312 0-72.332031-3.386719-105.769531-9.261719-.757813 7.996094-1.230469 16.074219-1.230469 24.261719zm0 0"/><path d="m170.003906 361.601562c-29.511718 33.09375-45.5 71.90625-47.550781 111.613282 39.113281 24.425781 85.132813 38.785156 134.546875 38.785156 25.980469 0 51.046875-3.953125 74.683594-11.207031-1.148438-74.6875-13.6875-148.125-36.484375-215.71875-49.902344 14.964843-93.796875 41.320312-125.195313 76.527343zm0 0"/></symbol>

  

<symbol id="icons--icon12" viewBox="0 0 512 512" xmlns="http://www.w3.org/2000/svg"><path d="m256 0c-140.609375 0-256 115.390625-256 256 0 119.988281 84.195312 228.984375 196 256v-84.695312c-11.078125 2.425781-21.273438 2.496093-32.550781-.828126-15.128907-4.464843-27.421875-14.542968-36.546875-29.910156-5.816406-9.8125-16.125-20.453125-26.878906-19.671875l-2.636719-29.882812c23.253906-1.992188 43.371093 14.167969 55.3125 34.230469 5.304687 8.921874 11.410156 14.152343 19.246093 16.464843 7.574219 2.230469 15.707032 1.160157 25.183594-2.1875 2.378906-18.972656 11.070313-26.074219 17.636719-36.074219v-.015624c-66.679687-9.945313-93.253906-45.320313-103.800781-73.242188-13.976563-37.074219-6.476563-83.390625 18.238281-112.660156.480469-.570313 1.347656-2.0625 1.011719-3.105469-11.332032-34.230469 2.476562-62.546875 2.984375-65.550781 13.078125 3.867187 15.203125-3.890625 56.808593 21.386718l7.191407 4.320313c3.007812 1.792969 2.0625.769531 5.070312.542969 17.371094-4.71875 35.683594-7.324219 53.726563-7.558594 18.179687.234375 36.375 2.839844 54.464844 7.75l2.328124.234375c-.203124-.03125.632813-.148437 2.035157-.984375 51.972656-31.480469 50.105469-21.191406 64.042969-25.722656.503906 3.007812 14.128906 31.785156 2.917968 65.582031-1.511718 4.65625 45.058594 47.300781 19.246094 115.753906-10.546875 27.933594-37.117188 63.308594-103.796875 73.253907v.015624c8.546875 13.027344 18.816406 19.957032 18.761719 46.832032v105.722656c111.808594-27.015625 196-136.011719 196-256 .003906-140.609375-115.386719-256-255.996094-256zm0 0"/></symbol>

<symbol id="icons--icon13"  viewBox="0 0 512 512" xmlns="http://www.w3.org/2000/svg"><path d="m256 0c-141.363281 0-256 114.636719-256 256s114.636719 256 256 256 256-114.636719 256-256-114.636719-256-256-256zm-74.390625 387h-62.347656v-187.574219h62.347656zm-31.171875-213.1875h-.40625c-20.921875 0-34.453125-14.402344-34.453125-32.402344 0-18.40625 13.945313-32.410156 35.273437-32.410156 21.328126 0 34.453126 14.003906 34.859376 32.410156 0 18-13.53125 32.402344-35.273438 32.402344zm255.984375 213.1875h-62.339844v-100.347656c0-25.21875-9.027343-42.417969-31.585937-42.417969-17.222656 0-27.480469 11.601563-31.988282 22.800781-1.648437 4.007813-2.050781 9.609375-2.050781 15.214844v104.75h-62.34375s.816407-169.976562 0-187.574219h62.34375v26.558594c8.285157-12.78125 23.109375-30.960937 56.1875-30.960937 41.019531 0 71.777344 26.808593 71.777344 84.421874zm0 0"/></symbol>


</svg>