<?xml version="1.0" encoding="utf-8"?>

<svg xmlns="http://www.w3.org/2000/svg" xmlns:xlink="http://www.w3.org/1999/xlink">

<symbol id="icons--icon1" xmlns="http://www.w3.org/2000/svg" width="38.593" height="35.82" viewBox="0 0 38.593 35.82">
  <defs>
    <style>
      .cls-1 {
        fill: #fff;
        fill-rule: evenodd;
      }
    </style>
  </defs>
  <path id="Icon" class="cls-1" d="M554.774,1446.06l-1.237,6.88h26.141l-0.818,4.07H552.653l-1.366,6.92h25.795l-0.921,6.58-10.849,3.69-8.9-3.4,0.775-3.72h-6.925l-1.187,8.33,15.079,6.47,17.492-6.47,6-29.35H554.774Z" transform="translate(-549.063 -1446.06)"/>
</symbol>

<symbol id="icons--icon2" xmlns="http://www.w3.org/2000/svg" width="40" height="39" viewBox="0 0 40 39">
  <defs>
    <style>
      .cls-1 {
        fill: #ccc;
        fill-rule: evenodd;
      }
    </style>
  </defs>
  <path id="stylus" class="cls-1" d="M36.717,11.288l-8.4-8.395,2.4-2.4,8.4,8.394Zm-2.4,2.4-1.2,13.191c-10.793,0-26.384,11.993-26.384,11.993l-1.992-1.99L15,26.624a3.594,3.594,0,1,0-2.015-2.015L2.73,34.867,0.738,32.875S12.732,17.285,12.732,6.491l13.192-1.2Z"/>
</symbol>

<symbol id="icons--icon3" xmlns="http://www.w3.org/2000/svg" width="39.81" height="37.31" viewBox="0 0 39.81 37.31">
  <defs>
    <style>
      .cls-1 {
        fill: #fff;
        fill-rule: evenodd;
      }
    </style>
  </defs>
  <path id="alarm-clock" class="cls-1" d="M1405.55,1464.37l4.24,4.25-3.52,3.51-5.7-5.7v-8.49h4.98v6.43Zm9.95-18.87a7.46,7.46,0,0,1,4.28,13.57,17.922,17.922,0,0,0-10.39-10.39,7.455,7.455,0,0,1,6.11-3.18m-18.77,3.18a17.938,17.938,0,0,0-10.4,10.39,7.463,7.463,0,1,1,10.4-10.39m6.33,1.8a14.926,14.926,0,0,0-11.53,24.41l-0.91,7.92h2.49l2.48-4.48a14.932,14.932,0,0,0,14.93,0l2.49,4.48h2.49l-0.92-7.92a14.926,14.926,0,0,0-11.52-24.41m0,24.87a9.95,9.95,0,1,1,9.95-9.95,9.944,9.944,0,0,1-9.95,9.95" transform="translate(-1383.16 -1445.5)"/>
</symbol>

<symbol id="icons--icon4" xmlns="http://www.w3.org/2000/svg" width="43.87" height="43.87" viewBox="0 0 43.87 43.87">
  <defs>
    <style>
      .cls-1 {
        fill: #fff;
        fill-rule: evenodd;
      }
    </style>
  </defs>
  <path id="Icon" class="cls-1" d="M1820.38,1442.21a21.945,21.945,0,1,0,21.94,21.95,21.941,21.941,0,0,0-21.94-21.95m-8.23,21.95a8.23,8.23,0,1,1,8.23,8.23,8.224,8.224,0,0,1-8.23-8.23m25.97,7.35h0l-7.6-3.15a11.042,11.042,0,0,0,0-8.4l5.23-2.17,2.37-.99a19.256,19.256,0,0,1,0,14.71m-10.39-25.1h0l-3.15,7.6a11.037,11.037,0,0,0-4.2-.83,10.856,10.856,0,0,0-4.2.84l-1.48-3.57-1.67-4.04a19.231,19.231,0,0,1,14.7,0m-25.1,10.39,4.04,1.68,3.57,1.48a10.92,10.92,0,0,0,0,8.4l-7.61,3.15a19.256,19.256,0,0,1,0-14.71m10.4,25.1,0.98-2.37,2.17-5.23a11.037,11.037,0,0,0,4.2.83,10.856,10.856,0,0,0,4.2-.84l3.15,7.61a19.231,19.231,0,0,1-14.7,0" transform="translate(-1798.44 -1442.22)"/>
</symbol>

<symbol id="icons--icon5" xmlns="http://www.w3.org/2000/svg" width="18.44" height="18.07" viewBox="0 0 18.44 18.07">
  <defs>
    <style>
      .cls-1 {
        fill: #fff;
        fill-rule: evenodd;
      }
    </style>
  </defs>
  <path id="Arrows" class="cls-1" d="M1218.94,3835.3l-0.7-.7a0.978,0.978,0,0,0-1.38,0l-6.86,6.86-6.86-6.86a0.978,0.978,0,0,0-1.38,0l-0.7.7a0.978,0.978,0,0,0,0,1.38l8.24,8.24a1.015,1.015,0,0,0,1.4,0l8.24-8.24A0.978,0.978,0,0,0,1218.94,3835.3Zm0,7.17-0.7-.69a0.96,0.96,0,0,0-1.38,0l-6.86,6.85-6.86-6.85a0.96,0.96,0,0,0-1.38,0l-0.7.69a0.99,0.99,0,0,0,0,1.39l8.24,8.23a0.99,0.99,0,0,0,1.4,0l8.24-8.23A0.99,0.99,0,0,0,1218.94,3842.47Z" transform="translate(-1200.78 -3834.31)"/>
</symbol>

<symbol id="icons--icon10" version="1.1" xmlns="http://www.w3.org/2000/svg" xmlns:xlink="http://www.w3.org/1999/xlink" x="0px" y="0px"
  viewBox="0 0 112.196 112.196" style="enable-background:new 0 0 112.196 112.196;" xml:space="preserve">
  <circle cx="56.098" cy="56.098" r="56.098"/>
  <path style="fill:#fff;" d="M76.209,46.341c-16.203,0-16.224,16.142-16.224,16.225c0,0-1.11,16.162,16.224,16.162
    c0,0,14.456,0.822,14.456-11.248h-7.423c0,0,0.246,4.544-6.786,4.544c0,0-7.423,0.494-7.423-7.341h21.879
    C90.912,64.683,93.318,46.341,76.209,46.341z M68.95,59.028c0,0,0.905-6.498,7.424-6.498c6.539,0,6.436,6.498,6.436,6.498H68.95z
    M50.404,54.875c0,0,6.436-0.473,6.436-8.04c0-7.546-5.264-11.248-11.947-11.248H22.91v42.256h21.981
    c0,0,13.428,0.412,13.428-12.481C58.32,65.362,58.896,54.875,50.404,54.875z M32.596,43.092h12.296c0,0,2.982,0,2.982,4.4
    s-1.748,5.038-3.743,5.038H32.596V43.092z M44.276,70.338h-11.68v-11.31h12.296c0,0,4.463-0.041,4.442,5.819
    C49.334,69.783,46.024,70.297,44.276,70.338z M67.12,38.075v5.203h17.438v-5.203H67.12z"/>
</symbol>

  <symbol id="icons--icon11"  viewBox="0 0 512 512" xmlns="http://www.w3.org/2000/svg"><path d="m392.425781 114.992188c15.664063-17.457032 24.796875-35.734376 28-54.496094-44.292969-37.089844-101.269531-60.496094-163.425781-60.496094-32.09375 0-62.699219 6.210938-91.011719 17.078125 47.410157 47.5 87.058594 103.742187 118.070313 164.453125 45.695312-16.523438 83.78125-39.128906 108.367187-66.539062zm0 0"/><path d="m414.75 135.03125c-27.519531 30.671875-68.425781 55.617188-117.296875 73.746094 6.074219 13.320312 11.65625 26.917968 16.910156 40.691406 25.097657-5.398438 51.109375-8.46875 77.636719-8.46875 41.761719 0 82.332031 7.085938 119.742188 20.109375.035156-1.714844.257812-3.382813.257812-5.109375 0-66.035156-25.445312-126.09375-66.773438-171.429688-6.097656 17.570313-16.21875 34.574219-30.476562 50.460938zm0 0"/><path d="m5.847656 202.113281c31.886719 5.636719 67.214844 8.886719 101.152344 8.886719 52.609375 0 103.144531-7.46875 148.183594-20.296875-31.035156-59.628906-70.933594-114.507813-118.554688-160.402344-64.808594 34.855469-114.8125 97.925781-130.78125 171.8125zm0 0"/><path d="m509.15625 291.996094c-36.1875-13.621094-76.015625-20.996094-117.15625-20.996094-23.0625 0-45.710938 2.417969-67.554688 6.832031 22.175782 66.503907 35.007813 138.386719 37.199219 211.453125 78.015625-35.292968 135.042969-109.632812 147.511719-197.289062zm0 0"/><path d="m0 256c0 78.890625 38.027344 150.511719 94.472656 197.320312 5.980469-39.785156 23.917969-78.925781 53.132813-111.683593 34.75-38.960938 82.972656-68.136719 137.582031-84.789063-5.082031-13.109375-10.632812-25.960937-16.492188-38.632812-48.796874 14.472656-103.757812 22.785156-161.695312 22.785156-35.445312 0-72.332031-3.386719-105.769531-9.261719-.757813 7.996094-1.230469 16.074219-1.230469 24.261719zm0 0"/><path d="m170.003906 361.601562c-29.511718 33.09375-45.5 71.90625-47.550781 111.613282 39.113281 24.425781 85.132813 38.785156 134.546875 38.785156 25.980469 0 51.046875-3.953125 74.683594-11.207031-1.148438-74.6875-13.6875-148.125-36.484375-215.71875-49.902344 14.964843-93.796875 41.320312-125.195313 76.527343zm0 0"/></symbol>

  

<symbol id="icons--icon12" viewBox="0 0 512 512" xmlns="http://www.w3.org/2000/svg"><path d="m256 0c-140.609375 0-256 115.390625-256 256 0 119.988281 84.195312 228.984375 196 256v-84.695312c-11.078125 2.425781-21.273438 2.496093-32.550781-.828126-15.128907-4.464843-27.421875-14.542968-36.546875-29.910156-5.816406-9.8125-16.125-20.453125-26.878906-19.671875l-2.636719-29.882812c23.253906-1.992188 43.371093 14.167969 55.3125 34.230469 5.304687 8.921874 11.410156 14.152343 19.246093 16.464843 7.574219 2.230469 15.707032 1.160157 25.183594-2.1875 2.378906-18.972656 11.070313-26.074219 17.636719-36.074219v-.015624c-66.679687-9.945313-93.253906-45.320313-103.800781-73.242188-13.976563-37.074219-6.476563-83.390625 18.238281-112.660156.480469-.570313 1.347656-2.0625 1.011719-3.105469-11.332032-34.230469 2.476562-62.546875 2.984375-65.550781 13.078125 3.867187 15.203125-3.890625 56.808593 21.386718l7.191407 4.320313c3.007812 1.792969 2.0625.769531 5.070312.542969 17.371094-4.71875 35.683594-7.324219 53.726563-7.558594 18.179687.234375 36.375 2.839844 54.464844 7.75l2.328124.234375c-.203124-.03125.632813-.148437 2.035157-.984375 51.972656-31.480469 50.105469-21.191406 64.042969-25.722656.503906 3.007812 14.128906 31.785156 2.917968 65.582031-1.511718 4.65625 45.058594 47.300781 19.246094 115.753906-10.546875 27.933594-37.117188 63.308594-103.796875 73.253907v.015624c8.546875 13.027344 18.816406 19.957032 18.761719 46.832032v105.722656c111.808594-27.015625 196-136.011719 196-256 .003906-140.609375-115.386719-256-255.996094-256zm0 0"/></symbol>

<symbol id="icons--icon13"  viewBox="0 0 512 512" xmlns="http://www.w3.org/2000/svg"><path d="m256 0c-141.363281 0-256 114.636719-256 256s114.636719 256 256 256 256-114.636719 256-256-114.636719-256-256-256zm-74.390625 387h-62.347656v-187.574219h62.347656zm-31.171875-213.1875h-.40625c-20.921875 0-34.453125-14.402344-34.453125-32.402344 0-18.40625 13.945313-32.410156 35.273437-32.410156 21.328126 0 34.453126 14.003906 34.859376 32.410156 0 18-13.53125 32.402344-35.273438 32.402344zm255.984375 213.1875h-62.339844v-100.347656c0-25.21875-9.027343-42.417969-31.585937-42.417969-17.222656 0-27.480469 11.601563-31.988282 22.800781-1.648437 4.007813-2.050781 9.609375-2.050781 15.214844v104.75h-62.34375s.816407-169.976562 0-187.574219h62.34375v26.558594c8.285157-12.78125 23.109375-30.960937 56.1875-30.960937 41.019531 0 71.777344 26.808593 71.777344 84.421874zm0 0"/></symbol>

<symbol version="1.1" id="icons--icon14"  xmlns="http://www.w3.org/2000/svg" xmlns:xlink="http://www.w3.org/1999/xlink" x="0px" y="0px"
	 viewBox="0 0 97.75 97.75" style="enable-background:new 0 0 97.75 97.75;" xml:space="preserve">

	<path d="M48.875,0C21.883,0,0,21.882,0,48.875S21.883,97.75,48.875,97.75S97.75,75.868,97.75,48.875S75.867,0,48.875,0z
		 M54.499,65.109c-4.521,0-8.773-2.444-10.229-5.219c0,0-2.432,9.645-2.943,11.506c-1.813,6.58-7.146,13.162-7.561,13.701
		c-0.289,0.375-0.928,0.258-0.994-0.24c-0.113-0.838-1.475-9.139,0.127-15.909c0.801-3.4,5.383-22.814,5.383-22.814
		s-1.334-2.673-1.334-6.625c0-6.205,3.596-10.837,8.074-10.837c3.807,0,5.645,2.859,5.645,6.286c0,3.828-2.436,9.552-3.693,14.856
		c-1.051,4.441,2.225,8.064,6.605,8.064c7.933,0,13.272-10.188,13.272-22.261c0-9.174-6.176-16.044-17.418-16.044
		c-12.697,0-20.615,9.471-20.615,20.052c0,3.646,1.078,6.221,2.764,8.21c0.773,0.915,0.883,1.283,0.602,2.333
		c-0.203,0.771-0.66,2.625-0.854,3.358c-0.279,1.062-1.137,1.44-2.098,1.049c-5.846-2.387-8.572-8.793-8.572-15.994
		c0-11.893,10.029-26.154,29.922-26.154c15.985,0,26.506,11.566,26.506,23.984C77.089,52.839,67.956,65.109,54.499,65.109z"/>

</symbol>
<symbol version="1.1" id="icons--icon15" xmlns="http://www.w3.org/2000/svg" xmlns:xlink="http://www.w3.org/1999/xlink" x="0px" y="0px"
	 viewBox="0 0 112.196 112.196" style="enable-background:new 0 0 112.196 112.196;" xml:space="preserve">

	<circle style="fill:#7B7B7B;" cx="56.098" cy="56.098" r="56.098"/>
	<path style="fill:#FFFFFF;" d="M70.201,58.294h-10.01v36.672H45.025V58.294h-7.213V45.406h7.213v-8.34
		c0-5.964,2.833-15.303,15.301-15.303L71.56,21.81v12.51h-8.151c-1.337,0-3.217,0.668-3.217,3.513v7.585h11.334L70.201,58.294z"/>

</symbol>

<symbol id="icons--icon16"  viewBox="0 0 512 512"  xmlns="http://www.w3.org/2000/svg"><path d="m256 0c-141.363281 0-256 114.636719-256 256s114.636719 256 256 256 256-114.636719 256-256-114.636719-256-256-256zm116.886719 199.601562c.113281 2.519532.167969 5.050782.167969 7.59375 0 77.644532-59.101563 167.179688-167.183594 167.183594h.003906-.003906c-33.183594 0-64.0625-9.726562-90.066406-26.394531 4.597656.542969 9.277343.8125 14.015624.8125 27.53125 0 52.867188-9.390625 72.980469-25.152344-25.722656-.476562-47.410156-17.464843-54.894531-40.8125 3.582031.6875 7.265625 1.0625 11.042969 1.0625 5.363281 0 10.558593-.722656 15.496093-2.070312-26.886718-5.382813-47.140624-29.144531-47.140624-57.597657 0-.265624 0-.503906.007812-.75 7.917969 4.402344 16.972656 7.050782 26.613281 7.347657-15.777343-10.527344-26.148437-28.523438-26.148437-48.910157 0-10.765624 2.910156-20.851562 7.957031-29.535156 28.976563 35.554688 72.28125 58.9375 121.117187 61.394532-1.007812-4.304688-1.527343-8.789063-1.527343-13.398438 0-32.4375 26.316406-58.753906 58.765625-58.753906 16.902344 0 32.167968 7.144531 42.890625 18.566406 13.386719-2.640625 25.957031-7.53125 37.3125-14.261719-4.394531 13.714844-13.707031 25.222657-25.839844 32.5 11.886719-1.421875 23.214844-4.574219 33.742187-9.253906-7.863281 11.785156-17.835937 22.136719-29.308593 30.429687zm0 0"/></symbol>

<symbol id="icons--icon17" version="1.1" xmlns="http://www.w3.org/2000/svg" xmlns:xlink="http://www.w3.org/1999/xlink" x="0px" y="0px"
	  viewBox="0 0 97.75 97.75" style="enable-background:new 0 0 97.75 97.75;" xml:space="preserve">

		<polygon points="25.676,52.482 29.551,52.482 29.551,73.455 33.217,73.455 33.217,52.482 37.164,52.482 37.164,49.047 
			25.676,49.047"/>
		<path d="M56.674,55.046c-1.212,0-2.343,0.662-3.406,1.972v-7.972h-3.295v24.409h3.295v-1.762c1.103,1.361,2.233,2.013,3.406,2.013
			c1.311,0,2.193-0.69,2.633-2.044c0.221-0.771,0.334-1.982,0.334-3.665v-7.242c0-1.722-0.113-2.924-0.334-3.655
			C58.868,55.736,57.984,55.046,56.674,55.046z M56.344,68.255c0,1.644-0.482,2.454-1.434,2.454c-0.541,0-1.092-0.259-1.643-0.811
			V58.814c0.551-0.545,1.102-0.803,1.643-0.803c0.951,0,1.434,0.842,1.434,2.482V68.255z"/>
		<path d="M43.824,69.167c-0.731,1.033-1.422,1.542-2.084,1.542c-0.44,0-0.691-0.259-0.771-0.771c-0.03-0.106-0.03-0.508-0.03-1.28
			v-13.39h-3.296v14.379c0,1.285,0.111,2.153,0.291,2.705c0.331,0.922,1.063,1.354,2.123,1.354c1.213,0,2.457-0.732,3.767-2.234
			v1.984h3.298V55.268h-3.298V69.167z"/>
		<path d="M46.653,38.466c1.073,0,1.588-0.851,1.588-2.551v-7.731c0-1.701-0.515-2.548-1.588-2.548c-1.074,0-1.59,0.848-1.59,2.548
			v7.731C45.063,37.616,45.579,38.466,46.653,38.466z"/>
		<path d="M48.875,0C21.882,0,0,21.882,0,48.875S21.882,97.75,48.875,97.75S97.75,75.868,97.75,48.875S75.868,0,48.875,0z
			 M54.311,22.86h3.321v13.532c0,0.781,0,1.186,0.04,1.295c0.073,0.516,0.335,0.78,0.781,0.78c0.666,0,1.365-0.516,2.104-1.559
			V22.86h3.33v18.379h-3.33v-2.004c-1.326,1.52-2.59,2.257-3.805,2.257c-1.072,0-1.812-0.435-2.146-1.365
			c-0.184-0.557-0.295-1.436-0.295-2.733V22.86L54.311,22.86z M41.733,28.853c0-1.965,0.334-3.401,1.042-4.33
			c0.921-1.257,2.218-1.885,3.878-1.885c1.668,0,2.964,0.628,3.885,1.885c0.698,0.928,1.032,2.365,1.032,4.33v6.436
			c0,1.954-0.334,3.403-1.032,4.322c-0.921,1.254-2.217,1.881-3.885,1.881c-1.66,0-2.957-0.627-3.878-1.881
			c-0.708-0.919-1.042-2.369-1.042-4.322V28.853z M32.827,16.576l2.622,9.685l2.519-9.685h3.735L37.26,31.251v9.989h-3.692v-9.989
			c-0.335-1.77-1.074-4.363-2.259-7.803c-0.778-2.289-1.589-4.585-2.367-6.872H32.827z M75.186,75.061
			c-0.668,2.899-3.039,5.039-5.894,5.358c-6.763,0.755-13.604,0.759-20.42,0.755c-6.813,0.004-13.658,0-20.419-0.755
			c-2.855-0.319-5.227-2.458-5.893-5.358c-0.951-4.129-0.951-8.638-0.951-12.89s0.012-8.76,0.962-12.89
			c0.667-2.9,3.037-5.04,5.892-5.358c6.762-0.755,13.606-0.759,20.421-0.755c6.813-0.004,13.657,0,20.419,0.755
			c2.855,0.319,5.227,2.458,5.896,5.358c0.948,4.13,0.942,8.638,0.942,12.89S76.137,70.932,75.186,75.061z"/>
		<path d="M67.17,55.046c-1.686,0-2.995,0.619-3.947,1.864c-0.699,0.92-1.018,2.342-1.018,4.285v6.371
			c0,1.933,0.357,3.365,1.059,4.276c0.951,1.242,2.264,1.863,3.988,1.863c1.721,0,3.072-0.651,3.984-1.972
			c0.4-0.584,0.66-1.245,0.77-1.975c0.031-0.33,0.07-1.061,0.07-2.124v-0.479h-3.361c0,1.32-0.043,2.053-0.072,2.232
			c-0.188,0.881-0.662,1.321-1.473,1.321c-1.132,0-1.686-0.84-1.686-2.522v-3.226h6.592v-3.767c0-1.943-0.329-3.365-1.02-4.285
			C70.135,55.666,68.824,55.046,67.17,55.046z M68.782,62.218h-3.296v-1.683c0-1.682,0.553-2.523,1.654-2.523
			c1.09,0,1.642,0.842,1.642,2.523V62.218z"/>

</symbol>

<symbol  id="icons--icon18" viewBox="0 0 512 512"  xmlns="http://www.w3.org/2000/svg">
  <path d="m305 256c0 27.0625-21.9375 49-49 49s-49-21.9375-49-49 21.9375-49 49-49 49 21.9375 49 49zm0 0"/><path d="m370.59375 169.304688c-2.355469-6.382813-6.113281-12.160157-10.996094-16.902344-4.742187-4.882813-10.515625-8.640625-16.902344-10.996094-5.179687-2.011719-12.960937-4.40625-27.292968-5.058594-15.503906-.707031-20.152344-.859375-59.402344-.859375-39.253906 0-43.902344.148438-59.402344.855469-14.332031.65625-22.117187 3.050781-27.292968 5.0625-6.386719 2.355469-12.164063 6.113281-16.902344 10.996094-4.882813 4.742187-8.640625 10.515625-11 16.902344-2.011719 5.179687-4.40625 12.964843-5.058594 27.296874-.707031 15.5-.859375 20.148438-.859375 59.402344 0 39.25.152344 43.898438.859375 59.402344.652344 14.332031 3.046875 22.113281 5.058594 27.292969 2.359375 6.386719 6.113281 12.160156 10.996094 16.902343 4.742187 4.882813 10.515624 8.640626 16.902343 10.996094 5.179688 2.015625 12.964844 4.410156 27.296875 5.0625 15.5.707032 20.144532.855469 59.398438.855469 39.257812 0 43.90625-.148437 59.402344-.855469 14.332031-.652344 22.117187-3.046875 27.296874-5.0625 12.820313-4.945312 22.953126-15.078125 27.898438-27.898437 2.011719-5.179688 4.40625-12.960938 5.0625-27.292969.707031-15.503906.855469-20.152344.855469-59.402344 0-39.253906-.148438-43.902344-.855469-59.402344-.652344-14.332031-3.046875-22.117187-5.0625-27.296874zm-114.59375 162.179687c-41.691406 0-75.488281-33.792969-75.488281-75.484375s33.796875-75.484375 75.488281-75.484375c41.6875 0 75.484375 33.792969 75.484375 75.484375s-33.796875 75.484375-75.484375 75.484375zm78.46875-136.3125c-9.742188 0-17.640625-7.898437-17.640625-17.640625s7.898437-17.640625 17.640625-17.640625 17.640625 7.898437 17.640625 17.640625c-.003906 9.742188-7.898437 17.640625-17.640625 17.640625zm0 0"/><path d="m256 0c-141.363281 0-256 114.636719-256 256s114.636719 256 256 256 256-114.636719 256-256-114.636719-256-256-256zm146.113281 316.605469c-.710937 15.648437-3.199219 26.332031-6.832031 35.683593-7.636719 19.746094-23.246094 35.355469-42.992188 42.992188-9.347656 3.632812-20.035156 6.117188-35.679687 6.832031-15.675781.714844-20.683594.886719-60.605469.886719-39.925781 0-44.929687-.171875-60.609375-.886719-15.644531-.714843-26.332031-3.199219-35.679687-6.832031-9.8125-3.691406-18.695313-9.476562-26.039063-16.957031-7.476562-7.339844-13.261719-16.226563-16.953125-26.035157-3.632812-9.347656-6.121094-20.035156-6.832031-35.679687-.722656-15.679687-.890625-20.6875-.890625-60.609375s.167969-44.929688.886719-60.605469c.710937-15.648437 3.195312-26.332031 6.828125-35.683593 3.691406-9.808594 9.480468-18.695313 16.960937-26.035157 7.339844-7.480469 16.226563-13.265625 26.035157-16.957031 9.351562-3.632812 20.035156-6.117188 35.683593-6.832031 15.675781-.714844 20.683594-.886719 60.605469-.886719s44.929688.171875 60.605469.890625c15.648437.710937 26.332031 3.195313 35.683593 6.824219 9.808594 3.691406 18.695313 9.480468 26.039063 16.960937 7.476563 7.34375 13.265625 16.226563 16.953125 26.035157 3.636719 9.351562 6.121094 20.035156 6.835938 35.683593.714843 15.675781.882812 20.683594.882812 60.605469s-.167969 44.929688-.886719 60.605469zm0 0"/>
</symbol>

<symbol id="icons--icon19" enable-background="new 0 0 24 24" viewBox="0 0 24 24"  xmlns="http://www.w3.org/2000/svg"><path d="m12 24c6.629 0 12-5.371 12-12s-5.371-12-12-12-12 5.371-12 12 5.371 12 12 12zm-6.509-12.26 11.57-4.461c.537-.194 1.006.131.832.943l.001-.001-1.97 9.281c-.146.658-.537.818-1.084.508l-3-2.211-1.447 1.394c-.16.16-.295.295-.605.295l.213-3.053 5.56-5.023c.242-.213-.054-.333-.373-.121l-6.871 4.326-2.962-.924c-.643-.204-.657-.643.136-.953z"/></symbol>





</svg>