<?xml version="1.0" encoding="utf-8"?>

<svg xmlns="http://www.w3.org/2000/svg" xmlns:xlink="http://www.w3.org/1999/xlink">

<symbol viewBox="0 0 19 15" id="arrow" xmlns="http://www.w3.org/2000/svg"><path fill-rule="evenodd" d="M19 7.299v.402l.015.014L19 7.73V8h-.27l-7.015 7.015-.73-.73L17.27 8H0V7h17.27L10.985.715l.73-.73L18.73 7H19v.27l.015.015-.015.014z"/></symbol><symbol viewBox="0 0 19 15" id="arrow-left" xmlns="http://www.w3.org/2000/svg"><path fill-rule="evenodd" d="M19 8H1.73l6.285 6.285-.73.73L.27 8H0v-.27l-.015-.015L0 7.701v-.402l-.015-.014L0 7.27V7h.27L7.285-.015l.73.73L1.73 7H19v1z"/></symbol>

<symbol id="divider" data-name="Шар 1" xmlns="http://www.w3.org/2000/svg" viewBox="0 0 280.67 67.54"><defs><style>.cls-1{fill:#ffe4a2;}</style></defs><path class="cls-1" d="M18.52,49.58l21.73-.39L62,48.9c7.25-.09,14.49-.32,21.74-.25s14.48.29,21.73.69V50c-1.22-.07-2.43-.15-3.65-.24v-.21c1.22-.1,2.43-.17,3.65-.24V50q-10.87.6-21.73.69c-7.25.07-14.49-.16-21.74-.25l-21.73-.29-21.73-.39Z" transform="translate(-9.42 -6.15)"/><path class="cls-1" d="M31.36,54.39,47.16,54,63,53.72c5.27-.07,10.54-.28,15.8-.28s10.54.23,15.8.56v1c-.78,0-1.56-.12-2.34-.18s-1.55-.12-2.33-.21v-.2c.78-.09,1.56-.15,2.33-.21s1.56-.13,2.34-.18v1c-5.26.33-10.53.55-15.8.56s-10.53-.21-15.8-.28L47.16,55l-15.8-.38Z" transform="translate(-9.42 -6.15)"/><path class="cls-1" d="M122.05,49.1A3,3,0,0,1,123.86,48a4.23,4.23,0,0,1,2.12.2,4.15,4.15,0,0,1,1.78,1.24,4.44,4.44,0,0,1,.89,2,7.72,7.72,0,0,1-3.58,7.31A9.54,9.54,0,0,1,116.78,60a8.51,8.51,0,0,1-3.7-2.49,10.54,10.54,0,0,1-2.1-3.89,12.45,12.45,0,0,1,.64-8.65,16.08,16.08,0,0,1,5.7-6.41A25.11,25.11,0,0,1,125,35.22a18.94,18.94,0,0,1,8.67-.38,13.93,13.93,0,0,1,7.79,4.82,17.89,17.89,0,0,1,3.81,8.17,22.39,22.39,0,0,1-.27,8.76,33.32,33.32,0,0,1-3,7.88,19.52,19.52,0,0,1-5.63,6.83,13.31,13.31,0,0,1-4.25,2,10.41,10.41,0,0,1-4.78.18,8.52,8.52,0,0,1-2.38-.85A6.46,6.46,0,0,1,123,71a5,5,0,0,1-1.1-2.59,4,4,0,0,1,.83-2.77,5.43,5.43,0,0,1,4.24-2,5.25,5.25,0,0,1,3.91,1.61l-.35.44a4.57,4.57,0,0,0-3.37-.41A3.48,3.48,0,0,0,124.9,67a1.13,1.13,0,0,0-.05.91,2.12,2.12,0,0,0,.64.82,3.77,3.77,0,0,0,1.11.62,4.81,4.81,0,0,0,1.34.22,7.88,7.88,0,0,0,5.42-2.18A15.81,15.81,0,0,0,137,62c1.95-4.37,3.26-9,2.78-13.33a12.61,12.61,0,0,0-2.24-5.93,9.12,9.12,0,0,0-4.93-3.54,14.76,14.76,0,0,0-6.71,0,21.43,21.43,0,0,0-6.61,2.48,12.56,12.56,0,0,0-4.79,4.75,9.38,9.38,0,0,0-.84,6.46,6.76,6.76,0,0,0,3.87,5,7.54,7.54,0,0,0,6.58-.59,7.13,7.13,0,0,0,2.49-2.39,5.4,5.4,0,0,0,.84-3.29A3,3,0,0,0,125.66,49a2.68,2.68,0,0,0-3.17.45Z" transform="translate(-9.42 -6.15)"/><path class="cls-1" d="M146.56,38.27a38.15,38.15,0,0,1-7-5.64,38.67,38.67,0,0,1-2.93-3.45c-.23-.3-.44-.61-.66-.92a5.4,5.4,0,0,1-.66-1.09,2.08,2.08,0,0,1,0-1.68,2.35,2.35,0,0,1,1.19-1.14,2.72,2.72,0,0,1,1.56-.22,4,4,0,0,1,1.34.48,10.89,10.89,0,0,1,2,1.5,13.41,13.41,0,0,1,2.8,3.79,25.85,25.85,0,0,1,2.44,8.76l-.19.06c-1.41-2.68-2.52-5.42-4-7.83a21.91,21.91,0,0,0-2.46-3.37,9.1,9.1,0,0,0-1.45-1.36,2.33,2.33,0,0,0-.72-.34,1,1,0,0,0-.62,0,.84.84,0,0,0-.43.32.56.56,0,0,0,0,.49,4.74,4.74,0,0,0,.45.84c.19.31.38.63.58.93a34.48,34.48,0,0,0,2.6,3.53,37.3,37.3,0,0,0,6.34,6.15Z" transform="translate(-9.42 -6.15)"/><path class="cls-1" d="M148.74,36.34a47.17,47.17,0,0,1-4-15.3,24.54,24.54,0,0,1,.46-8,12.8,12.8,0,0,1,1.61-3.82,10,10,0,0,1,1.31-1.67,4.2,4.2,0,0,1,2-1.3,2.28,2.28,0,0,1,1.51.17,3,3,0,0,1,1,.89,10.92,10.92,0,0,1,1.08,1.88,15.39,15.39,0,0,1,1.16,4,32.19,32.19,0,0,1,0,8.09,48.28,48.28,0,0,1-4.31,15.32l-.19-.07a91.11,91.11,0,0,0,2.47-15.43,47.91,47.91,0,0,0,.08-7.66,13.37,13.37,0,0,0-.83-3.57,9.34,9.34,0,0,0-.8-1.58c-.33-.43-.49-.53-.83-.49a2.7,2.7,0,0,0-1.25.81A8.68,8.68,0,0,0,148,10a11.46,11.46,0,0,0-1.56,3.36,23.43,23.43,0,0,0-.73,7.63,46.83,46.83,0,0,0,3.2,15.28Z" transform="translate(-9.42 -6.15)"/><path class="cls-1" d="M108.9,44a12.24,12.24,0,0,1,1.56-5.62,15.62,15.62,0,0,1,3.88-4.5,13.83,13.83,0,0,1,5.27-2.86,11.84,11.84,0,0,1,5.94,0v.21c-1.89.58-3.64,1.1-5.33,1.78a28.73,28.73,0,0,0-4.93,2.24,14.38,14.38,0,0,0-4,3.73,12.42,12.42,0,0,0-2.22,5.09Z" transform="translate(-9.42 -6.15)"/><path class="cls-1" d="M20.68,49.78a25.62,25.62,0,0,0-4,.45,9,9,0,0,0-3.58,1.5,5.75,5.75,0,0,0-2.13,3,3.14,3.14,0,0,0,.75,3.11,3.6,3.6,0,0,0,3,1.19,6.32,6.32,0,0,0,3.14-1.17,3.09,3.09,0,0,0,1-1.09.9.9,0,0,0-.09-1.06,2.88,2.88,0,0,0-3.21-.79l-.11-.17a3.29,3.29,0,0,1,4.35-.06,2.43,2.43,0,0,1,.79,1.19,2.58,2.58,0,0,1,0,1.51,4.65,4.65,0,0,1-1.47,2.07A6.46,6.46,0,0,1,14.66,61a5.94,5.94,0,0,1-2.36-.61,5.72,5.72,0,0,1-1.84-1.54,5,5,0,0,1-1-2.18,4.38,4.38,0,0,1,.25-2.36,6.82,6.82,0,0,1,2.79-3.37,9.93,9.93,0,0,1,4-1.29,23.76,23.76,0,0,1,4.13-.06Z" transform="translate(-9.42 -6.15)"/><path class="cls-1" d="M281,49.79l-21.74.39-21.73.29c-7.24.09-14.49.32-21.73.25s-14.49-.29-21.74-.69v-.69c1.22.07,2.43.14,3.65.24v.21c-1.22.09-2.43.17-3.65.24v-.69q10.88-.6,21.74-.69c7.24-.07,14.49.16,21.73.25l21.73.29,21.74.39Z" transform="translate(-9.42 -6.15)"/><path class="cls-1" d="M268.14,54.59l-15.8.38-15.8.29c-5.27.07-10.53.28-15.8.28s-10.53-.23-15.8-.56V54c.78,0,1.56.12,2.34.18s1.56.12,2.34.21v.2c-.78.09-1.56.15-2.34.21s-1.56.13-2.34.18V54c5.27-.33,10.53-.55,15.8-.56s10.53.21,15.8.28l15.8.29,15.8.38Z" transform="translate(-9.42 -6.15)"/><path class="cls-1" d="M177,49.44a2.67,2.67,0,0,0-3.16-.45,3.13,3.13,0,0,0-1.29,1.06A3.3,3.3,0,0,0,172,51.6a5.34,5.34,0,0,0,.85,3.29,7.18,7.18,0,0,0,2.48,2.39,7.54,7.54,0,0,0,6.58.59,6.78,6.78,0,0,0,3.88-5,9.44,9.44,0,0,0-.85-6.46,12.56,12.56,0,0,0-4.79-4.75,21.43,21.43,0,0,0-6.61-2.48,14.72,14.72,0,0,0-6.7,0,9.18,9.18,0,0,0-4.94,3.54,12.5,12.5,0,0,0-2.23,5.93c-.48,4.33.83,9,2.77,13.33a16.1,16.1,0,0,0,3.67,5.43,7.89,7.89,0,0,0,5.43,2.18,4.8,4.8,0,0,0,1.33-.22,3.65,3.65,0,0,0,1.11-.62,2.06,2.06,0,0,0,.65-.82,1.22,1.22,0,0,0,0-.91,3.5,3.5,0,0,0-2.3-1.75,4.56,4.56,0,0,0-3.37.41l-.36-.44a5.27,5.27,0,0,1,3.91-1.61,5.43,5.43,0,0,1,4.24,2,4,4,0,0,1,.83,2.77A5,5,0,0,1,176.47,71a6.62,6.62,0,0,1-2,1.68,8.52,8.52,0,0,1-2.38.85,10.41,10.41,0,0,1-4.78-.18,13.41,13.41,0,0,1-4.25-2,19.38,19.38,0,0,1-5.62-6.83,32.92,32.92,0,0,1-3-7.88,22.39,22.39,0,0,1-.27-8.76A17.81,17.81,0,0,1,158,39.66a13.87,13.87,0,0,1,7.78-4.82,18.93,18.93,0,0,1,8.67.38,25,25,0,0,1,7.69,3.34A16.11,16.11,0,0,1,187.89,45a12.45,12.45,0,0,1,.63,8.65,10.54,10.54,0,0,1-2.1,3.89A8.42,8.42,0,0,1,182.73,60a9.53,9.53,0,0,1-8.29-1.26,7.7,7.7,0,0,1-3.58-7.31,4.42,4.42,0,0,1,.88-2,4.21,4.21,0,0,1,1.78-1.24,4.25,4.25,0,0,1,2.12-.2,2.92,2.92,0,0,1,1.81,1.12Z" transform="translate(-9.42 -6.15)"/><path class="cls-1" d="M152.83,38.1A37.3,37.3,0,0,0,159.17,32a34.48,34.48,0,0,0,2.6-3.53c.21-.3.4-.62.59-.93a4.6,4.6,0,0,0,.44-.84.57.57,0,0,0,0-.49.88.88,0,0,0-.43-.32,1,1,0,0,0-.63,0,2.19,2.19,0,0,0-.71.34,8.69,8.69,0,0,0-1.45,1.36,21.91,21.91,0,0,0-2.46,3.37c-1.5,2.41-2.61,5.15-4,7.83l-.19-.06a25.85,25.85,0,0,1,2.44-8.76,13.6,13.6,0,0,1,2.8-3.79,10.89,10.89,0,0,1,2-1.5,4,4,0,0,1,1.34-.48,2.72,2.72,0,0,1,1.56.22,2.35,2.35,0,0,1,1.19,1.14,2.08,2.08,0,0,1,0,1.68,5.4,5.4,0,0,1-.65,1.09c-.22.31-.44.62-.67.92a37.07,37.07,0,0,1-2.93,3.45,37.81,37.81,0,0,1-7,5.64Z" transform="translate(-9.42 -6.15)"/><path class="cls-1" d="M190.4,44.06A12.29,12.29,0,0,0,188.18,39a14.38,14.38,0,0,0-4-3.73A28.73,28.73,0,0,0,179.28,33c-1.69-.68-3.44-1.2-5.33-1.78V31a11.84,11.84,0,0,1,5.94,0,13.86,13.86,0,0,1,5.26,2.86,15.62,15.62,0,0,1,3.88,4.5A12.24,12.24,0,0,1,190.6,44Z" transform="translate(-9.42 -6.15)"/><path class="cls-1" d="M278.82,49.57a23.76,23.76,0,0,1,4.13.06,9.93,9.93,0,0,1,4,1.29,6.84,6.84,0,0,1,2.8,3.37,4.47,4.47,0,0,1,.24,2.36,4.86,4.86,0,0,1-1,2.18,5.61,5.61,0,0,1-1.84,1.54,5.94,5.94,0,0,1-2.35.61,6.46,6.46,0,0,1-4.42-1.55A4.65,4.65,0,0,1,279,57.36a2.67,2.67,0,0,1,0-1.51,2.43,2.43,0,0,1,.79-1.19,3.29,3.29,0,0,1,4.35.06l-.11.17a2.88,2.88,0,0,0-3.21.79.9.9,0,0,0-.08,1.06,3.06,3.06,0,0,0,1,1.09A6.36,6.36,0,0,0,284.84,59a3.6,3.6,0,0,0,3-1.19,3.14,3.14,0,0,0,.75-3.11,5.68,5.68,0,0,0-2.12-3,9.11,9.11,0,0,0-3.59-1.5,25.5,25.5,0,0,0-4-.45Z" transform="translate(-9.42 -6.15)"/></symbol>

<symbol id="divider-2" xmlns="http://www.w3.org/2000/svg" viewBox="0 0 88.6 53.99"><path class="cls-1" d="M12.91,18.21a6.43,6.43,0,0,1-2.41,2.63A5.4,5.4,0,0,1,7,21.42a8.62,8.62,0,0,1-5.87-4.06A7.47,7.47,0,0,1,0,13.82a10,10,0,0,1,.53-3.67A12.62,12.62,0,0,1,4.9,4.26,20.25,20.25,0,0,1,18.72.06a33.67,33.67,0,0,1,14,4.12,43.25,43.25,0,0,1,11.57,8.87,32.68,32.68,0,0,1,4.41,5.89,35.22,35.22,0,0,1,4.47,21.33,25.2,25.2,0,0,1-2,7.19,16.57,16.57,0,0,1-1.93,3.29,9,9,0,0,1-3,2.66,5.62,5.62,0,0,1-4.26.3,7.8,7.8,0,0,1-3.36-2.31,11.68,11.68,0,0,1-2-3.35l-.32-.93L36,46.21c-.14-.61-.33-1.2-.42-1.82A29,29,0,0,1,37,29.77a41.36,41.36,0,0,1,3-6.69A59.81,59.81,0,0,1,48.56,11.3a42.69,42.69,0,0,1,5.55-4.78,44.26,44.26,0,0,1,6.31-3.69,35.3,35.3,0,0,1,7-2.34A24,24,0,0,1,74.7.13a18.7,18.7,0,0,1,7,2.26A15.49,15.49,0,0,1,87,7.48a9.43,9.43,0,0,1,1.4,7.1,7.17,7.17,0,0,1-4.75,5.25A6.11,6.11,0,0,1,80,20a5,5,0,0,1-2.83-2.14,4.83,4.83,0,0,0,2.87,2,5.83,5.83,0,0,0,3.45-.29,6.74,6.74,0,0,0,4.31-5.06A8.77,8.77,0,0,0,86.31,7.9,14.62,14.62,0,0,0,81.2,3.28a17.88,17.88,0,0,0-6.62-2,22.75,22.75,0,0,0-6.93.48,33.08,33.08,0,0,0-6.6,2.36,42.77,42.77,0,0,0-6,3.68,40.09,40.09,0,0,0-5.23,4.68A55.15,55.15,0,0,0,45.39,18a51.4,51.4,0,0,0-3.74,6,39.77,39.77,0,0,0-2.83,6.42A27.09,27.09,0,0,0,37.53,44c.08.57.27,1.11.4,1.67l.21.83.27.77A9.52,9.52,0,0,0,40.1,50a5.71,5.71,0,0,0,2.48,1.71,3.59,3.59,0,0,0,2.71-.21,7,7,0,0,0,2.31-2,14.79,14.79,0,0,0,1.71-2.88A23.07,23.07,0,0,0,51.16,40a33,33,0,0,0-1.32-13.77c-2.65-9-9.81-16-17.92-20.67A32,32,0,0,0,18.64,1.37,19.11,19.11,0,0,0,5.52,5.07a11.6,11.6,0,0,0-4.24,5.35,7.84,7.84,0,0,0,.28,6.66,8.15,8.15,0,0,0,5.44,4,5.15,5.15,0,0,0,3.43-.41A6.32,6.32,0,0,0,12.91,18.21Z"/><path class="cls-1" d="M41.88,29.76A39.3,39.3,0,0,1,47,18.86a34.48,34.48,0,0,1,8.44-8.77A28.73,28.73,0,0,1,66.69,5.28a22.65,22.65,0,0,1,12,.81A28.42,28.42,0,0,0,67,6.67a32.2,32.2,0,0,0-10.47,4.91,40.15,40.15,0,0,0-8.35,8.12A64,64,0,0,0,41.88,29.76Z"/><path class="cls-1" d="M48.77,29.76A63.92,63.92,0,0,0,42.48,19.7a40.2,40.2,0,0,0-8.36-8.12A32,32,0,0,0,23.65,6.67,28.36,28.36,0,0,0,12,6.09a22.61,22.61,0,0,1,12-.81,28.6,28.6,0,0,1,11.22,4.81,34.52,34.52,0,0,1,8.45,8.77A39.27,39.27,0,0,1,48.77,29.76Z"/></symbol>

<symbol id="divider__flip" xmlns="http://www.w3.org/2000/svg" viewBox="0 0 280.64 67.7"><path class="cls-1" d="M271.21,23.63l-21.72.61-21.75.51c-7.25.16-14.48.47-21.73.47s-14.49-.15-21.74-.47v-.66c1.22.05,2.43.12,3.66.2v.21c-1.22.11-2.43.19-3.65.28v-.69q10.88-.72,21.73-.91c7.24-.14,14.49,0,21.74,0l21.73.07,21.73.17Z" transform="translate(0.37 -0.65)"/><path class="cls-1" d="M258.33,19l-15.8.55-15.84.44c-5.27.12-10.53.39-15.79.44s-10.54-.13-15.81-.4V19c.78,0,1.56.1,2.34.15s1.56.11,2.34.19v.2c-.78.1-1.56.17-2.33.23l-2.34.21V19c5.26-.39,10.53-.66,15.8-.72s10.53.1,15.8.12l15.84.14,15.8.22Z" transform="translate(0.37 -0.65)"/><path class="cls-1" d="M167.69,25.15a3,3,0,0,1-1.8,1.12,4.24,4.24,0,0,1-2.12-.18A4.16,4.16,0,0,1,162,24.87a4.47,4.47,0,0,1-.91-2,7.73,7.73,0,0,1,3.51-7.35,9.54,9.54,0,0,1,8.27-1.33,8.52,8.52,0,0,1,3.73,2.45,10.6,10.6,0,0,1,2.14,3.87,12.44,12.44,0,0,1-.56,8.66,16,16,0,0,1-5.63,6.46,25.07,25.07,0,0,1-7.65,3.42,18.8,18.8,0,0,1-8.66.47,13.88,13.88,0,0,1-7.84-4.74,17.93,17.93,0,0,1-3.89-8.13,22.32,22.32,0,0,1,.18-8.77A33.43,33.43,0,0,1,147.59,10a19.45,19.45,0,0,1,5.56-6.88,13.15,13.15,0,0,1,4.23-2,10.3,10.3,0,0,1,4.78-.23,8.46,8.46,0,0,1,2.39.82,6.4,6.4,0,0,1,2,1.61,5,5,0,0,1,1.13,2.58,4,4,0,0,1-.8,2.78,5.43,5.43,0,0,1-4.22,2,5.26,5.26,0,0,1-3.93-1.57l.35-.44a4.59,4.59,0,0,0,3.37.38,3.47,3.47,0,0,0,2.24-1.75,1.11,1.11,0,0,0,0-.91,2,2,0,0,0-.64-.81A3.82,3.82,0,0,0,162.94,5a5.13,5.13,0,0,0-1.34-.21A7.91,7.91,0,0,0,156.2,7a15.89,15.89,0,0,0-3.59,5.42c-1.9,4.39-3.17,9-2.64,13.36a12.59,12.59,0,0,0,2.3,5.91,9.15,9.15,0,0,0,5,3.49,14.76,14.76,0,0,0,6.71-.07,21.43,21.43,0,0,0,6.59-2.55,12.46,12.46,0,0,0,4.74-4.79,9.36,9.36,0,0,0,.77-6.47,6.74,6.74,0,0,0-3.92-5,7.54,7.54,0,0,0-6.57.65,7.15,7.15,0,0,0-2.47,2.42,5.45,5.45,0,0,0-.8,3.3,3,3,0,0,0,1.8,2.6,2.68,2.68,0,0,0,3.17-.48Z" transform="translate(0.37 -0.65)"/><path class="cls-1" d="M143.29,36.23a38,38,0,0,1,7.06,5.57,38.6,38.6,0,0,1,3,3.42c.24.3.45.6.67.91a5.26,5.26,0,0,1,.67,1.08,2.05,2.05,0,0,1,0,1.68,2.34,2.34,0,0,1-1.18,1.16,2.69,2.69,0,0,1-1.56.23,4,4,0,0,1-1.34-.46,11.78,11.78,0,0,1-2-1.48,13.24,13.24,0,0,1-2.83-3.77,25.64,25.64,0,0,1-2.53-8.73l.19-.06c1.44,2.66,2.57,5.39,4.08,7.79A21.32,21.32,0,0,0,150,46.91a9.82,9.82,0,0,0,1.46,1.35,2.41,2.41,0,0,0,.73.33,1,1,0,0,0,.62,0,.78.78,0,0,0,.42-.32.53.53,0,0,0,0-.49,5.73,5.73,0,0,0-.46-.84c-.19-.3-.39-.62-.59-.92a34.38,34.38,0,0,0-2.63-3.5,37.34,37.34,0,0,0-6.41-6.09Z" transform="translate(0.37 -0.65)"/><path class="cls-1" d="M141.13,38.18a47.17,47.17,0,0,1,4.16,15.26,24.71,24.71,0,0,1-.38,8,13,13,0,0,1-1.58,3.84A10,10,0,0,1,142,67a4.14,4.14,0,0,1-2,1.32,2.25,2.25,0,0,1-1.51-.15,3.17,3.17,0,0,1-1-.88,11.27,11.27,0,0,1-1.09-1.87,15.06,15.06,0,0,1-1.2-4,32.21,32.21,0,0,1-.09-8.09,48.26,48.26,0,0,1,4.16-15.36l.19.07a90.46,90.46,0,0,0-2.31,15.45,47.78,47.78,0,0,0,0,7.66,13.63,13.63,0,0,0,.87,3.56,9,9,0,0,0,.81,1.57c.34.43.5.53.84.49a2.75,2.75,0,0,0,1.24-.83,8.45,8.45,0,0,0,1.2-1.4,11.27,11.27,0,0,0,1.52-3.37,23.44,23.44,0,0,0,.66-7.64A46.73,46.73,0,0,0,141,38.25Z" transform="translate(0.37 -0.65)"/><path class="cls-1" d="M180.89,30.12a12.24,12.24,0,0,1-1.5,5.64,15.75,15.75,0,0,1-3.83,4.53,13.88,13.88,0,0,1-5.25,2.92,12,12,0,0,1-5.94.06v-.21c1.89-.6,3.63-1.14,5.31-1.84a27.75,27.75,0,0,0,4.91-2.29,14.22,14.22,0,0,0,4-3.77,12.36,12.36,0,0,0,2.17-5.11Z" transform="translate(0.37 -0.65)"/><path class="cls-1" d="M269.05,23.46a27,27,0,0,0,4-.49,9.13,9.13,0,0,0,3.56-1.54,5.76,5.76,0,0,0,2.1-3,3.12,3.12,0,0,0-.78-3.1,3.6,3.6,0,0,0-3-1.16,6.28,6.28,0,0,0-3.13,1.2,3.17,3.17,0,0,0-1,1.1.91.91,0,0,0,.1,1.06,2.89,2.89,0,0,0,3.22.75l.11.17a3.29,3.29,0,0,1-4.35.11,2.43,2.43,0,0,1-.8-1.19,2.59,2.59,0,0,1,0-1.51,4.74,4.74,0,0,1,1.45-2.08A6.43,6.43,0,0,1,275,12.18a5.86,5.86,0,0,1,2.36.58,5.71,5.71,0,0,1,1.86,1.52,5.05,5.05,0,0,1,1,2.17,4.45,4.45,0,0,1-.22,2.37,6.86,6.86,0,0,1-2.76,3.39,9.78,9.78,0,0,1-4,1.33,22.79,22.79,0,0,1-4.13.1Z" transform="translate(0.37 -0.65)"/><path class="cls-1" d="M8.74,26.06l21.74-.61,21.73-.51c7.23-.16,14.48-.46,21.72-.47s14.49.15,21.75.48v.69c-1.22-.06-2.43-.12-3.65-.21v-.21c1.22-.1,2.43-.19,3.65-.27v.69q-10.86.7-21.73.9c-7.24.15-14.49,0-21.73,0l-21.73-.07L8.75,26.27Z" transform="translate(0.37 -0.65)"/><path class="cls-1" d="M21.56,21.13l15.79-.54,15.8-.45c5.27-.12,10.52-.38,15.79-.44s10.54.13,15.81.41v1c-.78,0-1.56-.11-2.34-.16s-1.56-.11-2.35-.19v-.2c.78-.1,1.56-.16,2.34-.23s1.56-.15,2.34-.2v1c-5.27.38-10.53.65-15.8.71s-10.53-.1-15.8-.12l-15.8-.13-15.8-.22Z" transform="translate(0.37 -0.65)"/><path class="cls-1" d="M112.74,25.36a2.66,2.66,0,0,0,3.17.42,3.15,3.15,0,0,0,1.28-1.07,3.34,3.34,0,0,0,.53-1.56,5.37,5.37,0,0,0-.88-3.28,7.1,7.1,0,0,0-2.51-2.36,7.55,7.55,0,0,0-6.58-.53,6.78,6.78,0,0,0-3.83,5,9.44,9.44,0,0,0,.91,6.45,12.66,12.66,0,0,0,4.84,4.71,21.52,21.52,0,0,0,6.64,2.41,14.68,14.68,0,0,0,6.69-.07,9.14,9.14,0,0,0,4.91-3.59A12.49,12.49,0,0,0,130.08,26c.44-4.33-.92-9-2.9-13.3a16.1,16.1,0,0,0-3.73-5.39A7.89,7.89,0,0,0,118,5.16a5,5,0,0,0-1.33.23,3.69,3.69,0,0,0-1.1.64,2.06,2.06,0,0,0-.64.82,1.2,1.2,0,0,0,0,.91,3.51,3.51,0,0,0,2.31,1.73A4.55,4.55,0,0,0,120.62,9l.36.44a5.25,5.25,0,0,1-3.89,1.65,5.4,5.4,0,0,1-4.26-2A4,4,0,0,1,112,6.41a4.94,4.94,0,0,1,1.09-2.61,6.61,6.61,0,0,1,2-1.7,8.34,8.34,0,0,1,2.37-.87,10.3,10.3,0,0,1,4.78.13,13.26,13.26,0,0,1,4.27,2,19.3,19.3,0,0,1,5.69,6.77,33,33,0,0,1,3.08,7.85,22.48,22.48,0,0,1,.36,8.76A17.82,17.82,0,0,1,131.84,35a13.86,13.86,0,0,1-7.73,4.9,18.86,18.86,0,0,1-8.68-.29,25.28,25.28,0,0,1-7.72-3.26,16.12,16.12,0,0,1-5.81-6.39,12.45,12.45,0,0,1-.72-8.64,10.59,10.59,0,0,1,2.06-3.91,8.38,8.38,0,0,1,3.67-2.5,9.55,9.55,0,0,1,8.3,1.18,7.7,7.7,0,0,1,3.65,7.27,4.4,4.4,0,0,1-.86,2,4.22,4.22,0,0,1-3.88,1.48,2.87,2.87,0,0,1-1.82-1.1Z" transform="translate(0.37 -0.65)"/><path class="cls-1" d="M137,36.46a37.67,37.67,0,0,0-6.27,6.16,34.58,34.58,0,0,0-2.57,3.56c-.2.3-.39.62-.58.94a4.44,4.44,0,0,0-.43.84.6.6,0,0,0,0,.49.89.89,0,0,0,.44.32,1,1,0,0,0,.63,0,2.09,2.09,0,0,0,.7-.35A8.5,8.5,0,0,0,130.38,47a21.45,21.45,0,0,0,2.43-3.4c1.47-2.42,2.56-5.17,3.92-7.87l.19.06a26.05,26.05,0,0,1-2.35,8.79,13.5,13.5,0,0,1-2.77,3.81,10,10,0,0,1-2,1.52,3.94,3.94,0,0,1-1.34.5,2.71,2.71,0,0,1-1.56-.21,2.38,2.38,0,0,1-1.2-1.12,2.09,2.09,0,0,1,0-1.68,5.74,5.74,0,0,1,.64-1.1l.66-.93a37.13,37.13,0,0,1,2.9-3.48,38,38,0,0,1,6.94-5.71Z" transform="translate(0.37 -0.65)"/><path class="cls-1" d="M99.4,30.88a12.26,12.26,0,0,0,2.27,5,14.62,14.62,0,0,0,4,3.69,29.5,29.5,0,0,0,4.93,2.22c1.69.66,3.45,1.16,5.35,1.72v.22a11.72,11.72,0,0,1-5.94.06,13.85,13.85,0,0,1-5.29-2.8,15.87,15.87,0,0,1-3.93-4.47,12.31,12.31,0,0,1-1.62-5.62Z" transform="translate(0.37 -0.65)"/><path class="cls-1" d="M10.93,26.26a24.76,24.76,0,0,1-4.13,0,10,10,0,0,1-4-1.25A6.85,6.85,0,0,1,0,21.65a4.43,4.43,0,0,1-.26-2.36,4.82,4.82,0,0,1,1-2.19,5.5,5.5,0,0,1,1.83-1.56,5.83,5.83,0,0,1,2.34-.63,6.46,6.46,0,0,1,4.44,1.5,4.71,4.71,0,0,1,1.4,2.06,2.67,2.67,0,0,1,0,1.51,2.45,2.45,0,0,1-.77,1.2,3.3,3.3,0,0,1-4.36,0L5.66,21a2.87,2.87,0,0,0,3.2-.82.89.89,0,0,0,.07-1.06,3,3,0,0,0-1-1.08,6.36,6.36,0,0,0-3.11-1.14,3.59,3.59,0,0,0-3,1.22,3.13,3.13,0,0,0-.71,3.12,5.59,5.59,0,0,0,2.15,3,9.09,9.09,0,0,0,3.6,1.47,25.59,25.59,0,0,0,4,.41Z" transform="translate(0.37 -0.65)"/></symbol>

<symbol id="divider-3"  xmlns="http://www.w3.org/2000/svg" viewBox="0 0 186.59 35.59"><path class="cls-1" d="M181.32,7a3.5,3.5,0,0,0-1.69.83,2.42,2.42,0,0,0-.79,1.62,1.63,1.63,0,0,0,.82,1.46,3.2,3.2,0,0,0,1.79.39,5,5,0,0,0,3.45-1.23,3.29,3.29,0,0,0,.64-3.34,6,6,0,0,0-2.2-2.92,6.76,6.76,0,0,0-3.47-1.22,15.7,15.7,0,0,0-1.94,0h-2l-4,.07-32.11.42-16,.28-8,.07a11.28,11.28,0,0,0-3.51.44,8,8,0,0,0-3,1.6,8.36,8.36,0,0,0-2.77,6.09,5.36,5.36,0,0,0,3.19,5.31,4.69,4.69,0,0,0,3.28,0,3.53,3.53,0,0,0,2.36-2.14,3,3,0,0,0-.86-3.11,3.21,3.21,0,0,0-3.46-.42l-.13-.25a4.42,4.42,0,0,1,2-.62,3.27,3.27,0,0,1,2,.65,4.11,4.11,0,0,1,1.58,4.09,5,5,0,0,1-3,3.42,6.46,6.46,0,0,1-4.56.3A6.75,6.75,0,0,1,105.31,16a8.4,8.4,0,0,1-1.37-4.43,10.55,10.55,0,0,1,7.39-10.53,14,14,0,0,1,4.41-.6l8,.08,16,.27,32.11.44,4,.07h2a17.65,17.65,0,0,1,2.06.1,8,8,0,0,1,4,1.62,6.81,6.81,0,0,1,2.43,3.48,4.09,4.09,0,0,1-1,4.1,5.65,5.65,0,0,1-4,1.3,3.82,3.82,0,0,1-2.06-.55,2.09,2.09,0,0,1-1-1.9,2.72,2.72,0,0,1,1-1.86,3.71,3.71,0,0,1,1.89-.85Z" transform="translate(0.05 -0.43)"/><path class="cls-1" d="M5.26,6.72a3.72,3.72,0,0,1,1.88.85,2.72,2.72,0,0,1,1,1.86,2.06,2.06,0,0,1-1,1.9,3.72,3.72,0,0,1-2,.55,5.65,5.65,0,0,1-4-1.3,4.08,4.08,0,0,1-1-4.1A6.86,6.86,0,0,1,2.6,3,8.08,8.08,0,0,1,6.54,1.44a20.29,20.29,0,0,1,2.06-.1h2l4-.07L46.71.85l16-.27,8-.07a13.71,13.71,0,0,1,4.41.61,10.7,10.7,0,0,1,4,2.31,10.83,10.83,0,0,1,3.37,8.18A8.42,8.42,0,0,1,81.23,16a6.86,6.86,0,0,1-3.72,2.8,6.55,6.55,0,0,1-4.57-.31,5,5,0,0,1-3-3.42A4.12,4.12,0,0,1,71.54,11a3.24,3.24,0,0,1,2.1-.63,4.28,4.28,0,0,1,2,.63l-.13.25a3.23,3.23,0,0,0-3.46.41,3,3,0,0,0-.86,3.11A3.55,3.55,0,0,0,73.54,17a4.74,4.74,0,0,0,3.28,0A5.38,5.38,0,0,0,80,11.64a8.24,8.24,0,0,0-2.77-6.09,8,8,0,0,0-2.95-1.61,11.24,11.24,0,0,0-3.51-.44l-8-.08L46.73,3.14,14.62,2.7l-4-.07h-2c-.64,0-1.29,0-1.94,0A6.88,6.88,0,0,0,3.21,3.85,6,6,0,0,0,1,6.77a3.31,3.31,0,0,0,.64,3.34,5,5,0,0,0,3.44,1.23A3.2,3.2,0,0,0,6.88,11,1.62,1.62,0,0,0,7.7,9.49a2.37,2.37,0,0,0-.79-1.62A3.59,3.59,0,0,0,5.22,7Z" transform="translate(0.05 -0.43)"/><path class="cls-1" d="M97.94,6.52a2.45,2.45,0,0,1,1.91.84c.24.25.47.5.69.77a1.49,1.49,0,0,1,.4,1.13,2.2,2.2,0,0,1-.53,1,3.5,3.5,0,0,1-.87.76,3.66,3.66,0,0,1-2.13.62,3.84,3.84,0,0,1-3.52-2.56,5.34,5.34,0,0,1,.65-4.38,7.27,7.27,0,0,1,3.3-3,5.36,5.36,0,0,1,2.34-.41,5.8,5.8,0,0,1,2.3.73,6.68,6.68,0,0,1,3.06,3.44,8.34,8.34,0,0,1,.35,4.56,11.19,11.19,0,0,1-1.71,4.11,18.64,18.64,0,0,1-2.78,3.29c-2,2-4.26,3.44-6.12,5.11s-3.36,3.64-3.26,5.8a12.62,12.62,0,0,0,1.1,3.55,11.79,11.79,0,0,1,.6,2A4.2,4.2,0,0,1,93.53,36L93.25,36a6.11,6.11,0,0,0-1.32-3.5A12,12,0,0,1,90,28.63,7.28,7.28,0,0,1,90.69,24a13.86,13.86,0,0,1,2.6-3.57,78.23,78.23,0,0,1,6.2-5.14,11.38,11.38,0,0,0,4.14-5.78,6.15,6.15,0,0,0,0-3.35,4.77,4.77,0,0,0-2-2.53,3.54,3.54,0,0,0-3.1-.35,5.74,5.74,0,0,0-2.69,2.17,4.07,4.07,0,0,0-.73,3.27,2.85,2.85,0,0,0,2.45,2,3,3,0,0,0,1.7-.38,2.79,2.79,0,0,0,.7-.54,1.67,1.67,0,0,0,.44-.69c.12-.4-.44-1-.81-1.49A2,2,0,0,0,98,6.78Z" transform="translate(0.05 -0.43)"/><path class="cls-1" d="M93.46,33.71a23.45,23.45,0,0,0,2.6-2.85c.74-1,1.66-2.07,1.58-3.17a5.09,5.09,0,0,0-1.58-3.08,16.76,16.76,0,0,0-2.9-2.35c-2.1-1.4-4.47-2.5-6.68-4a16.81,16.81,0,0,1-3.1-2.73,10.77,10.77,0,0,1-2.13-3.75,10.53,10.53,0,0,1-.44-4.35,8.47,8.47,0,0,1,1.63-4.29A7.11,7.11,0,0,1,86.54.57a6.74,6.74,0,0,1,4.77.78,5.91,5.91,0,0,1,2.89,4,5.34,5.34,0,0,1-1.47,4.56,4.35,4.35,0,0,1-2.1,1.22,3.81,3.81,0,0,1-2.38-.19A2.71,2.71,0,0,1,86.67,9.2,2,2,0,0,1,87.17,7l.22.18a1.58,1.58,0,0,0,0,1.6,1.71,1.71,0,0,0,1.21.79,2.53,2.53,0,0,0,2.54-1.11,3.22,3.22,0,0,0,.5-2.69,3.25,3.25,0,0,0-1.79-2,4.12,4.12,0,0,0-2.76-.37A4.6,4.6,0,0,0,84.6,4.83,7,7,0,0,0,83.43,11a10.71,10.71,0,0,0,4.11,5.69c2,1.55,4.26,2.79,6.4,4.39a17.09,17.09,0,0,1,2.94,2.76,6,6,0,0,1,1.66,3.85,3.61,3.61,0,0,1-.75,2,18.81,18.81,0,0,1-1.25,1.55,24.32,24.32,0,0,1-2.88,2.68Z" transform="translate(0.05 -0.43)"/></symbol>

<symbol id="divider-4"  xmlns="http://www.w3.org/2000/svg" viewBox="0 0 121.81 48.18"><path class="cls-1" d="M1,25.18a15.35,15.35,0,0,1-.6-8.95A20.6,20.6,0,0,1,4.42,8a21.81,21.81,0,0,1,7.19-5.77,24.42,24.42,0,0,1,9-2.22A35.07,35.07,0,0,1,38.42,4.23,62.39,62.39,0,0,1,53,15.32c4.31,4.28,8.25,8.85,12.35,13.21A84,84,0,0,0,78.56,40.45a44,44,0,0,0,7.74,4.3,34.42,34.42,0,0,0,8.53,2.31,28.39,28.39,0,0,0,8.87-.16A23.56,23.56,0,0,0,112,43.62a22.17,22.17,0,0,1-8.18,3.82,29.49,29.49,0,0,1-9.09.63A35.75,35.75,0,0,1,85.79,46a44.55,44.55,0,0,1-8.14-4.22A81.21,81.21,0,0,1,63.88,29.88C59.7,25.51,55.76,21,51.5,16.79A61.6,61.6,0,0,0,37.51,6,34.16,34.16,0,0,0,20.67,1.65,23.78,23.78,0,0,0,12.18,3.5a20.53,20.53,0,0,0-7,5.19A19.68,19.68,0,0,0,.93,16.36,15.75,15.75,0,0,0,1,25.18Z"/><path class="cls-1" d="M57.76,12.66c4.29,4.38,8.51,8.85,13.1,12.88A73.13,73.13,0,0,0,85.69,36.06a38.85,38.85,0,0,0,8.42,3.14,24.23,24.23,0,0,0,8.8.52,19.38,19.38,0,0,0,2.15-.4,18.72,18.72,0,0,0,2.08-.68,17,17,0,0,0,3.83-2,21.3,21.3,0,0,0,5.87-6.48,21.27,21.27,0,0,0,2.94-8.22,13.71,13.71,0,0,0-1.44-8.33,13.67,13.67,0,0,0-14.73-6.67A15.7,15.7,0,0,0,96,11a14,14,0,0,0-4.06,7.68,9.6,9.6,0,0,0,2.25,8.26,8.47,8.47,0,0,0,8.19,2.73,7.61,7.61,0,0,1-4.58,0,9.59,9.59,0,0,1-4-2.4,9.39,9.39,0,0,1-2.43-4,11.64,11.64,0,0,1-.39-4.73A14.92,14.92,0,0,1,95,10.08a16.81,16.81,0,0,1,8.24-4.69,14.89,14.89,0,0,1,9.51.86,15.36,15.36,0,0,1,7.17,6.4,15.43,15.43,0,0,1,1.72,9.47,23.77,23.77,0,0,1-9.6,16,18.51,18.51,0,0,1-4.26,2.26,22.82,22.82,0,0,1-2.3.74,21.35,21.35,0,0,1-2.37.41,25.86,25.86,0,0,1-9.45-.7A37.73,37.73,0,0,1,85,37.41,69.91,69.91,0,0,1,70.21,26.24C65.8,21.94,61.72,17.34,57.76,12.66Z"/></symbol>
<symbol id="divider-5" xmlns="http://www.w3.org/2000/svg" viewBox="0 0 116.67 44.98"><path class="cls-1" d="M50.25,0a71.76,71.76,0,0,1-6.66,8.11,69.47,69.47,0,0,1-7.83,7A70.25,70.25,0,0,1,27,20.89,20.91,20.91,0,0,1,22,23a8.91,8.91,0,0,1-5.5,0,5.33,5.33,0,0,1-3.43-4.45,7.79,7.79,0,0,1,1.73-5.34A8.38,8.38,0,0,1,17,11.33a7.85,7.85,0,0,1,2.64-1.05,13.77,13.77,0,0,1,5.5,0,30.66,30.66,0,0,1,5.16,1.51q2.47.95,4.9,2c3.23,1.39,6.4,2.91,9.54,4.47C51,21.34,57.13,24.64,63.42,27.6a97.26,97.26,0,0,0,19.47,7,52.26,52.26,0,0,0,20.37,1A19.89,19.89,0,0,0,108,34.23a13.22,13.22,0,0,0,4-2.55,6.6,6.6,0,0,0,2.11-3.83,6.18,6.18,0,0,0-.92-4.21,9.26,9.26,0,0,0-3.3-3.16A13.15,13.15,0,0,0,105.42,19a26,26,0,0,0-5-.18l-2.55.24a21.76,21.76,0,0,0-2.54.32,73.85,73.85,0,0,0-19.54,6.44c-6.29,2.94-12.39,6.33-18.64,9.51a104.91,104.91,0,0,1-19.57,8A43.76,43.76,0,0,1,27,45a37.3,37.3,0,0,1-10.62-1.14A29.37,29.37,0,0,1,11.37,42c-.79-.45-1.6-.85-2.35-1.35A20.06,20.06,0,0,1,6.85,39a19.35,19.35,0,0,1-6-8.87A20.3,20.3,0,0,1,.56,19.5a18.21,18.21,0,0,1,5.21-9.18A19.49,19.49,0,0,1,25.44,6.09,19.42,19.42,0,0,0,6.22,10.78,17.42,17.42,0,0,0,1.46,19.7,19.13,19.13,0,0,0,2,29.77,18.11,18.11,0,0,0,7.73,38a18.72,18.72,0,0,0,2,1.48c.71.46,1.48.82,2.22,1.23a27.83,27.83,0,0,0,4.8,1.67A35.44,35.44,0,0,0,27,43.25a41.73,41.73,0,0,0,10.1-1.72,112.48,112.48,0,0,0,19.12-8.05c6.19-3.19,12.29-6.62,18.65-9.65A76.21,76.21,0,0,1,95,17.11a19.61,19.61,0,0,1,2.65-.35l2.67-.27a27.91,27.91,0,0,1,5.47.17,15.6,15.6,0,0,1,5.38,1.72,11.45,11.45,0,0,1,4.2,4,8.48,8.48,0,0,1,1.21,5.82,9.08,9.08,0,0,1-2.83,5.19,15.75,15.75,0,0,1-4.78,3,22.22,22.22,0,0,1-5.3,1.46,54.48,54.48,0,0,1-21.25-1.08A99.71,99.71,0,0,1,62.52,29.5c-6.36-3-12.48-6.41-18.67-9.61-3.09-1.6-6.21-3.15-9.38-4.57a49.46,49.46,0,0,0-9.65-3.54c-3.23-.68-6.9-.31-8.91,2.3a6.48,6.48,0,0,0-1.52,4.38A4.1,4.1,0,0,0,17,21.92a7.8,7.8,0,0,0,4.81.08,19.83,19.83,0,0,0,4.73-1.92,66.24,66.24,0,0,0,8.86-5.48A71.5,71.5,0,0,0,50.25,0Z"/></symbol>

</svg>