<?xml version="1.0" encoding="utf-8"?>
<!-- Generator: Adobe Illustrator 23.0.3, SVG Export Plug-In . SVG Version: 6.00 Build 0)  -->
<svg version="1.1" id="book" xmlns="http://www.w3.org/2000/svg" xmlns:xlink="http://www.w3.org/1999/xlink" x="0px" y="0px"
	 viewBox="0 0 445 639" style="enable-background:new 0 0 445 639;" xml:space="preserve">
<style type="text/css">
	.st0{fill:#44444F;}
	.st1{fill-rule:evenodd;clip-rule:evenodd;fill:#65E496;}
	.st2{fill:#3D3D47;}
</style>
<title>book</title>
<path class="st0" d="M445,634c0,2.8-2.2,5-5,5H5c-2.8,0-5-2.2-5-5V5c0-2.8,2.2-5,5-5h435c2.8,0,5,2.2,5,5V634"/>
<path id="Rectangle_10_copy_1_" class="st1" d="M445,554.1l-25.4,25.4c-12.1,11.9-31.6,11.7-43.5-0.4c-11.7-12-11.7-31.1,0-43.1l0,0
	l68.9-68.9"/>
<path id="Rectangle_10_copy_2_1_" class="st1" d="M445,427.5L338.7,533.7c-12.2,11.8-31.7,11.4-43.5-0.8
	c-11.5-11.9-11.5-30.8,0-42.7h0L445,340.5"/>
<rect y="0" class="st2" width="62.7" height="639"/>
</svg>
