<?xml version="1.0" encoding="utf-8"?>
<!-- Generator: Adobe Illustrator 23.0.3, SVG Export Plug-In . SVG Version: 6.00 Build 0)  -->
<svg version="1.1" id="book" xmlns="http://www.w3.org/2000/svg" xmlns:xlink="http://www.w3.org/1999/xlink" x="0px" y="0px"
	 viewBox="0 0 270.9 410" style="enable-background:new 0 0 270.9 410;" xml:space="preserve">
<style type="text/css">
	.st0{fill:#44444F;}
	.st1{fill-rule:evenodd;clip-rule:evenodd;fill:#65E496;}
	.st2{fill:#3D3D47;}
</style>
<g id="Шар_2">
	<path class="st0" d="M270.9,406.8c0,1.8-1.3,3.2-3,3.2H3c-1.7,0-3-1.4-3-3.2V3.2C0,1.4,1.3,0,3,0h264.8c1.7,0,3,1.4,3,3.2V406.8"/>
	<path id="Rectangle_10_copy_1_" class="st1" d="M270.9,355.5l-15.5,16.3c-7.4,7.6-19.2,7.5-26.5-0.3c-7.1-7.7-7.1-20,0-27.7l0,0
		l41.9-44.2"/>
	<path id="Rectangle_10_copy_2_1_" class="st1" d="M270.9,274.3l-64.7,68.1c-7.4,7.6-19.3,7.3-26.5-0.5c-7-7.6-7-19.8,0-27.4l0,0
		l91.2-96"/>
	<rect class="st2" width="38.2" height="410"/>
</g>
</svg>
