<svg id="Шар_1" data-name="Шар 1" xmlns="http://www.w3.org/2000/svg" viewBox="0 0 186.59 35.59"><defs><style>.cls-1{fill:#a8a8a7;}</style></defs><title>divider-3</title><g id="OBJECTS"><path class="cls-1" d="M181.32,7a3.5,3.5,0,0,0-1.69.83,2.42,2.42,0,0,0-.79,1.62,1.63,1.63,0,0,0,.82,1.46,3.2,3.2,0,0,0,1.79.39,5,5,0,0,0,3.45-1.23,3.29,3.29,0,0,0,.64-3.34,6,6,0,0,0-2.2-2.92,6.76,6.76,0,0,0-3.47-1.22,15.7,15.7,0,0,0-1.94,0h-2l-4,.07-32.11.42-16,.28-8,.07a11.28,11.28,0,0,0-3.51.44,8,8,0,0,0-3,1.6,8.36,8.36,0,0,0-2.77,6.09,5.36,5.36,0,0,0,3.19,5.31,4.69,4.69,0,0,0,3.28,0,3.53,3.53,0,0,0,2.36-2.14,3,3,0,0,0-.86-3.11,3.21,3.21,0,0,0-3.46-.42l-.13-.25a4.42,4.42,0,0,1,2-.62,3.27,3.27,0,0,1,2,.65,4.11,4.11,0,0,1,1.58,4.09,5,5,0,0,1-3,3.42,6.46,6.46,0,0,1-4.56.3A6.75,6.75,0,0,1,105.31,16a8.4,8.4,0,0,1-1.37-4.43,10.55,10.55,0,0,1,7.39-10.53,14,14,0,0,1,4.41-.6l8,.08,16,.27,32.11.44,4,.07h2a17.65,17.65,0,0,1,2.06.1,8,8,0,0,1,4,1.62,6.81,6.81,0,0,1,2.43,3.48,4.09,4.09,0,0,1-1,4.1,5.65,5.65,0,0,1-4,1.3,3.82,3.82,0,0,1-2.06-.55,2.09,2.09,0,0,1-1-1.9,2.72,2.72,0,0,1,1-1.86,3.71,3.71,0,0,1,1.89-.85Z" transform="translate(0.05 -0.43)"/><path class="cls-1" d="M5.26,6.72a3.72,3.72,0,0,1,1.88.85,2.72,2.72,0,0,1,1,1.86,2.06,2.06,0,0,1-1,1.9,3.72,3.72,0,0,1-2,.55,5.65,5.65,0,0,1-4-1.3,4.08,4.08,0,0,1-1-4.1A6.86,6.86,0,0,1,2.6,3,8.08,8.08,0,0,1,6.54,1.44a20.29,20.29,0,0,1,2.06-.1h2l4-.07L46.71.85l16-.27,8-.07a13.71,13.71,0,0,1,4.41.61,10.7,10.7,0,0,1,4,2.31,10.83,10.83,0,0,1,3.37,8.18A8.42,8.42,0,0,1,81.23,16a6.86,6.86,0,0,1-3.72,2.8,6.55,6.55,0,0,1-4.57-.31,5,5,0,0,1-3-3.42A4.12,4.12,0,0,1,71.54,11a3.24,3.24,0,0,1,2.1-.63,4.28,4.28,0,0,1,2,.63l-.13.25a3.23,3.23,0,0,0-3.46.41,3,3,0,0,0-.86,3.11A3.55,3.55,0,0,0,73.54,17a4.74,4.74,0,0,0,3.28,0A5.38,5.38,0,0,0,80,11.64a8.24,8.24,0,0,0-2.77-6.09,8,8,0,0,0-2.95-1.61,11.24,11.24,0,0,0-3.51-.44l-8-.08L46.73,3.14,14.62,2.7l-4-.07h-2c-.64,0-1.29,0-1.94,0A6.88,6.88,0,0,0,3.21,3.85,6,6,0,0,0,1,6.77a3.31,3.31,0,0,0,.64,3.34,5,5,0,0,0,3.44,1.23A3.2,3.2,0,0,0,6.88,11,1.62,1.62,0,0,0,7.7,9.49a2.37,2.37,0,0,0-.79-1.62A3.59,3.59,0,0,0,5.22,7Z" transform="translate(0.05 -0.43)"/><path class="cls-1" d="M97.94,6.52a2.45,2.45,0,0,1,1.91.84c.24.25.47.5.69.77a1.49,1.49,0,0,1,.4,1.13,2.2,2.2,0,0,1-.53,1,3.5,3.5,0,0,1-.87.76,3.66,3.66,0,0,1-2.13.62,3.84,3.84,0,0,1-3.52-2.56,5.34,5.34,0,0,1,.65-4.38,7.27,7.27,0,0,1,3.3-3,5.36,5.36,0,0,1,2.34-.41,5.8,5.8,0,0,1,2.3.73,6.68,6.68,0,0,1,3.06,3.44,8.34,8.34,0,0,1,.35,4.56,11.19,11.19,0,0,1-1.71,4.11,18.64,18.64,0,0,1-2.78,3.29c-2,2-4.26,3.44-6.12,5.11s-3.36,3.64-3.26,5.8a12.62,12.62,0,0,0,1.1,3.55,11.79,11.79,0,0,1,.6,2A4.2,4.2,0,0,1,93.53,36L93.25,36a6.11,6.11,0,0,0-1.32-3.5A12,12,0,0,1,90,28.63,7.28,7.28,0,0,1,90.69,24a13.86,13.86,0,0,1,2.6-3.57,78.23,78.23,0,0,1,6.2-5.14,11.38,11.38,0,0,0,4.14-5.78,6.15,6.15,0,0,0,0-3.35,4.77,4.77,0,0,0-2-2.53,3.54,3.54,0,0,0-3.1-.35,5.74,5.74,0,0,0-2.69,2.17,4.07,4.07,0,0,0-.73,3.27,2.85,2.85,0,0,0,2.45,2,3,3,0,0,0,1.7-.38,2.79,2.79,0,0,0,.7-.54,1.67,1.67,0,0,0,.44-.69c.12-.4-.44-1-.81-1.49A2,2,0,0,0,98,6.78Z" transform="translate(0.05 -0.43)"/><path class="cls-1" d="M93.46,33.71a23.45,23.45,0,0,0,2.6-2.85c.74-1,1.66-2.07,1.58-3.17a5.09,5.09,0,0,0-1.58-3.08,16.76,16.76,0,0,0-2.9-2.35c-2.1-1.4-4.47-2.5-6.68-4a16.81,16.81,0,0,1-3.1-2.73,10.77,10.77,0,0,1-2.13-3.75,10.53,10.53,0,0,1-.44-4.35,8.47,8.47,0,0,1,1.63-4.29A7.11,7.11,0,0,1,86.54.57a6.74,6.74,0,0,1,4.77.78,5.91,5.91,0,0,1,2.89,4,5.34,5.34,0,0,1-1.47,4.56,4.35,4.35,0,0,1-2.1,1.22,3.81,3.81,0,0,1-2.38-.19A2.71,2.71,0,0,1,86.67,9.2,2,2,0,0,1,87.17,7l.22.18a1.58,1.58,0,0,0,0,1.6,1.71,1.71,0,0,0,1.21.79,2.53,2.53,0,0,0,2.54-1.11,3.22,3.22,0,0,0,.5-2.69,3.25,3.25,0,0,0-1.79-2,4.12,4.12,0,0,0-2.76-.37A4.6,4.6,0,0,0,84.6,4.83,7,7,0,0,0,83.43,11a10.71,10.71,0,0,0,4.11,5.69c2,1.55,4.26,2.79,6.4,4.39a17.09,17.09,0,0,1,2.94,2.76,6,6,0,0,1,1.66,3.85,3.61,3.61,0,0,1-.75,2,18.81,18.81,0,0,1-1.25,1.55,24.32,24.32,0,0,1-2.88,2.68Z" transform="translate(0.05 -0.43)"/></g></svg>