<svg xmlns="http://www.w3.org/2000/svg" viewBox="0 0 512 512"><path d="M341.333 162.152H460.8c5.12 0 8.533-3.413 8.533-8.533v-34.133c0-5.12-3.413-8.533-8.533-8.533H341.333c-5.12 0-8.533 3.413-8.533 8.533v34.133c0 5.119 3.413 8.533 8.533 8.533zm8.534-34.133h102.4v17.067h-102.4v-17.067zM217.6 238.952c17.067-11.093 37.547-34.133 29.867-76.8-9.387-55.467-65.707-69.12-94.72-68.267H8.533c-5.12 0-8.533 3.413-8.533 8.533v290.133c0 5.12 3.413 8.533 8.533 8.533H163.84c35.84 0 93.867-14.507 100.693-73.387 5.974-52.905-24.746-77.652-46.933-88.745zm29.867 86.186c-7.68 63.147-86.187 58.88-90.453 58.88H17.067V110.952h135.68c.853 0 68.267 0 77.653 53.76 9.387 52.907-34.987 65.707-36.693 66.56-3.413.853-5.973 4.267-5.973 8.533s2.56 7.68 6.827 8.533c2.559.001 60.586 13.654 52.906 76.8zM512 307.219c0-75.093-49.493-128-119.467-128-68.267 0-119.467 58.88-119.467 110.933 0 73.387 51.2 128 119.467 128 77.653 0 108.373-63.147 110.933-75.093.853-2.56 0-5.12-1.707-6.827-1.707-2.56-4.267-3.413-6.827-3.413h-51.2c-3.413 0-6.827 2.56-7.68 5.973-3.413 6.827-11.093 19.627-34.987 19.627-24.747 0-40.107-15.36-42.667-42.667h145.067c5.122 0 8.535-3.413 8.535-8.533zm-162.987-8.534c-5.12 0-8.533 3.413-8.533 8.533 0 41.813 23.04 68.267 59.733 68.267 29.867 0 43.52-15.36 48.64-25.6h32.427c-10.24 17.92-36.693 51.2-88.747 51.2-59.733 0-102.4-46.933-102.4-110.933 0-43.52 44.373-93.867 102.4-93.867 66.56 0 98.987 51.2 101.547 102.4H349.013z"/><path d="M68.267 221.885H153.6c23.893 0 42.667-18.773 42.667-42.667 0-23.893-18.773-42.667-42.667-42.667H68.267c-5.12 0-8.533 3.413-8.533 8.533v68.267c-.001 5.121 3.413 8.534 8.533 8.534zm8.533-68.267h76.8c14.507 0 25.6 11.093 25.6 25.6 0 14.507-11.093 25.6-25.6 25.6H76.8v-51.2zM145.067 256.019h-76.8c-5.12 0-8.533 3.413-8.533 8.533v85.333c0 5.12 3.413 8.533 8.533 8.533h76.8c28.16 0 51.2-23.04 51.2-51.2 0-28.16-23.04-51.199-51.2-51.199zm0 85.333H76.8v-68.267h68.267c18.773 0 34.133 15.36 34.133 34.133 0 18.774-15.36 34.134-34.133 34.134zM396.8 213.352c-34.987 0-55.467 26.453-55.467 51.2v8.533c0 5.12 3.413 8.533 8.533 8.533h93.867c5.12 0 8.533-3.413 8.533-8.533v-8.533c.001-24.747-19.626-51.2-55.466-51.2zm-38.4 51.2c0-16.213 13.653-34.133 38.4-34.133s38.4 17.92 38.4 34.133h-76.8z"/></svg>