<svg xmlns="http://www.w3.org/2000/svg" viewBox="0 0 52.484 52.484"><path d="M44.808.952C44.339.347 43.592 0 42.757 0H10.168a3.001 3.001 0 0 0-2.992 3.003v47.889c0 .313.048.618.144.906a.998.998 0 0 0 1.723.321l15.566-18.981h12.055a1 1 0 0 0 .968-.749l3.152-12.137A1 1 0 0 0 39.815 19h-14.84c-1.379 0-2.5-1.121-2.5-2.5s1.121-2.5 2.5-2.5h16.657a1 1 0 0 0 .968-.749l2.613-10.063c.213-.813.064-1.628-.405-2.236zm-1.53 1.735L40.859 12H24.976c-2.481 0-4.5 2.019-4.5 4.5s2.019 4.5 4.5 4.5h13.547L35.89 31.137H24.135c-.3 0-.583.135-.773.366L9.176 48.801V3.003c0-.544.454-1.003.992-1.003h32.589c.215 0 .381.063.469.176.089.115.108.297.052.511z"/></svg>