<?xml version="1.0" standalone="no"?>
<!DOCTYPE svg PUBLIC "-//W3C//DTD SVG 20010904//EN"
 "http://www.w3.org/TR/2001/REC-SVG-20010904/DTD/svg10.dtd">
<svg version="1.0" xmlns="http://www.w3.org/2000/svg"
 width="700.000000pt" height="700.000000pt" viewBox="0 0 700.000000 700.000000"
 preserveAspectRatio="xMidYMid meet">
<metadata>
Created by potrace 1.11, written by Peter Selinger 2001-2013
</metadata>
<g transform="translate(0.000000,700.000000) scale(0.100000,-0.100000)"
fill="#000000" stroke="none">
<path d="M3230 6993 c-477 -45 -846 -145 -1250 -339 -442 -213 -822 -507
-1150 -890 -100 -117 -256 -331 -247 -340 6 -6 498 -5 572 1 22 1 103 6 180 9
77 4 151 9 165 11 14 2 84 6 155 10 119 6 133 4 162 -14 75 -47 89 -153 29
-220 -26 -29 -53 -39 -119 -47 -29 -3 -63 -7 -76 -9 -25 -4 -229 -18 -268 -19
-13 0 -23 -5 -23 -12 0 -6 41 -132 90 -280 50 -148 156 -465 236 -704 80 -239
150 -444 155 -455 10 -22 256 -752 269 -800 5 -16 52 -158 106 -315 53 -157
166 -491 251 -744 84 -252 156 -463 159 -468 4 -5 178 506 389 1136 l382 1145
-124 338 c-68 186 -130 356 -137 378 -7 22 -29 83 -49 135 -19 52 -79 217
-133 365 -54 149 -99 271 -100 273 -2 3 -51 9 -160 17 -45 3 -93 8 -105 10
-13 2 -51 6 -83 10 -75 8 -111 27 -132 67 -35 68 -13 160 49 199 29 18 43 19
166 14 74 -4 141 -8 150 -10 9 -1 84 -6 166 -10 83 -4 170 -9 195 -11 64 -4
616 -4 670 0 25 2 108 7 185 11 77 4 156 8 175 10 19 2 89 6 155 10 106 5 124
4 155 -13 91 -49 92 -199 2 -246 -32 -16 -141 -32 -297 -42 -94 -6 -157 -11
-162 -13 -2 -1 289 -868 448 -1336 72 -213 667 -1982 761 -2264 50 -148 52
-153 64 -125 11 25 232 756 254 839 10 38 128 426 170 560 17 55 33 107 35
115 2 8 20 70 39 137 20 68 37 133 40 145 2 13 9 41 14 63 6 22 14 54 16 70 3
17 8 41 11 55 3 14 7 43 10 65 3 22 7 56 10 75 6 45 6 254 0 300 -2 19 -7 55
-10 80 -3 25 -8 52 -10 60 -2 8 -7 31 -10 50 -29 174 -135 417 -306 701 -175
292 -234 419 -269 577 -47 214 12 439 155 590 108 114 223 169 380 181 l80 6
-80 69 c-335 288 -731 516 -1145 657 -276 95 -532 149 -835 178 -85 8 -501 11
-575 4z"/>
<path d="M6574 5155 c9 -25 20 -231 19 -365 -1 -116 -7 -215 -18 -300 -2 -19
-7 -57 -11 -85 -3 -27 -7 -52 -9 -55 -2 -3 -6 -27 -9 -55 -4 -27 -27 -127 -51
-221 -41 -158 -65 -231 -192 -584 -24 -69 -51 -143 -58 -165 -7 -22 -52 -152
-100 -290 -48 -137 -125 -360 -171 -495 -47 -135 -98 -281 -113 -325 -15 -44
-49 -143 -75 -220 -26 -77 -51 -149 -56 -160 -5 -11 -41 -114 -80 -230 -39
-115 -87 -253 -105 -305 -18 -52 -54 -153 -78 -225 -76 -220 -194 -559 -203
-580 -7 -17 -2 -16 42 9 133 78 402 275 519 381 413 377 697 777 911 1285 103
242 207 627 230 851 3 35 8 67 10 70 18 31 25 550 11 714 -31 345 -106 659
-233 982 -47 121 -171 383 -181 383 -3 0 -3 -7 1 -15z"/>
<path d="M292 4900 c-165 -400 -241 -701 -279 -1105 -15 -161 -8 -562 13 -712
11 -85 13 -101 19 -148 4 -27 10 -66 15 -85 5 -19 12 -48 14 -65 40 -224 149
-544 271 -798 202 -423 512 -828 865 -1132 30 -26 66 -57 80 -69 72 -62 408
-296 425 -296 3 0 22 -10 43 -23 54 -34 212 -117 212 -112 0 2 -4 14 -10 27
-9 23 -95 259 -175 483 -42 119 -69 191 -85 230 -5 11 -31 85 -60 165 -28 80
-55 154 -60 165 -5 11 -20 52 -33 90 -14 39 -41 115 -62 170 -63 172 -111 304
-180 495 -107 296 -136 373 -151 407 -8 17 -14 34 -14 37 0 4 -45 131 -101
284 -127 348 -156 429 -208 572 -22 63 -45 124 -50 135 -5 11 -29 76 -54 145
-91 251 -410 1126 -417 1145 -8 19 -8 19 -18 -5z"/>
<path d="M3556 3173 c-7 -15 -140 -399 -215 -618 -81 -238 -208 -607 -237
-690 -20 -55 -48 -138 -64 -185 -15 -47 -65 -191 -110 -320 -45 -129 -92 -266
-105 -305 -13 -38 -65 -189 -115 -335 -50 -146 -113 -328 -140 -405 -27 -77
-51 -147 -54 -155 -7 -17 8 -23 180 -65 111 -27 251 -53 329 -61 28 -3 55 -7
62 -9 80 -27 625 -26 841 1 253 31 733 151 725 180 -2 5 -45 124 -97 264 -154
421 -291 796 -418 1145 -65 182 -125 346 -133 365 -13 33 -248 676 -383 1048
-42 118 -61 159 -66 145z"/>
</g>
</svg>
