<svg xmlns="http://www.w3.org/2000/svg" viewBox="0 0 88.6 53.99"><defs><style>.cls-1{fill:#010004;}</style></defs><title>Ресурс 1</title><g id="Шар_2" data-name="Шар 2"><g id="OBJECTS"><path class="cls-1" d="M12.91,18.21a6.43,6.43,0,0,1-2.41,2.63A5.4,5.4,0,0,1,7,21.42a8.62,8.62,0,0,1-5.87-4.06A7.47,7.47,0,0,1,0,13.82a10,10,0,0,1,.53-3.67A12.62,12.62,0,0,1,4.9,4.26,20.25,20.25,0,0,1,18.72.06a33.67,33.67,0,0,1,14,4.12,43.25,43.25,0,0,1,11.57,8.87,32.68,32.68,0,0,1,4.41,5.89,35.22,35.22,0,0,1,4.47,21.33,25.2,25.2,0,0,1-2,7.19,16.57,16.57,0,0,1-1.93,3.29,9,9,0,0,1-3,2.66,5.62,5.62,0,0,1-4.26.3,7.8,7.8,0,0,1-3.36-2.31,11.68,11.68,0,0,1-2-3.35l-.32-.93L36,46.21c-.14-.61-.33-1.2-.42-1.82A29,29,0,0,1,37,29.77a41.36,41.36,0,0,1,3-6.69A59.81,59.81,0,0,1,48.56,11.3a42.69,42.69,0,0,1,5.55-4.78,44.26,44.26,0,0,1,6.31-3.69,35.3,35.3,0,0,1,7-2.34A24,24,0,0,1,74.7.13a18.7,18.7,0,0,1,7,2.26A15.49,15.49,0,0,1,87,7.48a9.43,9.43,0,0,1,1.4,7.1,7.17,7.17,0,0,1-4.75,5.25A6.11,6.11,0,0,1,80,20a5,5,0,0,1-2.83-2.14,4.83,4.83,0,0,0,2.87,2,5.83,5.83,0,0,0,3.45-.29,6.74,6.74,0,0,0,4.31-5.06A8.77,8.77,0,0,0,86.31,7.9,14.62,14.62,0,0,0,81.2,3.28a17.88,17.88,0,0,0-6.62-2,22.75,22.75,0,0,0-6.93.48,33.08,33.08,0,0,0-6.6,2.36,42.77,42.77,0,0,0-6,3.68,40.09,40.09,0,0,0-5.23,4.68A55.15,55.15,0,0,0,45.39,18a51.4,51.4,0,0,0-3.74,6,39.77,39.77,0,0,0-2.83,6.42A27.09,27.09,0,0,0,37.53,44c.08.57.27,1.11.4,1.67l.21.83.27.77A9.52,9.52,0,0,0,40.1,50a5.71,5.71,0,0,0,2.48,1.71,3.59,3.59,0,0,0,2.71-.21,7,7,0,0,0,2.31-2,14.79,14.79,0,0,0,1.71-2.88A23.07,23.07,0,0,0,51.16,40a33,33,0,0,0-1.32-13.77c-2.65-9-9.81-16-17.92-20.67A32,32,0,0,0,18.64,1.37,19.11,19.11,0,0,0,5.52,5.07a11.6,11.6,0,0,0-4.24,5.35,7.84,7.84,0,0,0,.28,6.66,8.15,8.15,0,0,0,5.44,4,5.15,5.15,0,0,0,3.43-.41A6.32,6.32,0,0,0,12.91,18.21Z"/><path class="cls-1" d="M41.88,29.76A39.3,39.3,0,0,1,47,18.86a34.48,34.48,0,0,1,8.44-8.77A28.73,28.73,0,0,1,66.69,5.28a22.65,22.65,0,0,1,12,.81A28.42,28.42,0,0,0,67,6.67a32.2,32.2,0,0,0-10.47,4.91,40.15,40.15,0,0,0-8.35,8.12A64,64,0,0,0,41.88,29.76Z"/><path class="cls-1" d="M48.77,29.76A63.92,63.92,0,0,0,42.48,19.7a40.2,40.2,0,0,0-8.36-8.12A32,32,0,0,0,23.65,6.67,28.36,28.36,0,0,0,12,6.09a22.61,22.61,0,0,1,12-.81,28.6,28.6,0,0,1,11.22,4.81,34.52,34.52,0,0,1,8.45,8.77A39.27,39.27,0,0,1,48.77,29.76Z"/></g></g></svg>