<svg xmlns="http://www.w3.org/2000/svg" viewBox="0 0 413.19 20.13"><defs><style>.cls-1{opacity:0.7;}.cls-2{fill:#231f20;}</style></defs><title>Ресурс 1</title><g id="Шар_2" data-name="Шар 2"><g id="Objects"><g class="cls-1"><path class="cls-2" d="M208.17.22s-1.9,1-5.28,2.72c-1.68.85-3.74,1.86-6.11,3s-5,2.45-7.85,4-6,3.1-9.45,4.55a47.41,47.41,0,0,1-11.38,3.22,41.83,41.83,0,0,1-12.57-.26,16.12,16.12,0,0,1-6.16-2.16,7,7,0,0,1-2.3-2.54,6.77,6.77,0,0,1-.59-1.63,7.66,7.66,0,0,1-.16-.84,7.18,7.18,0,0,1,0-.92,8.34,8.34,0,0,1,3.3-6A13.23,13.23,0,0,1,155.93.84a28,28,0,0,1,3.29-.26l1.57,0,1.62,0a52.91,52.91,0,0,1,6.25.62,57.85,57.85,0,0,1,11.45,3.07,75,75,0,0,1,9.62,4.39c2.87,1.55,5.43,3.08,7.65,4.48l5.76,3.63c1.59,1,2.85,1.79,3.72,2.32l1.32.81a.12.12,0,0,1,0,.16.12.12,0,0,1-.15,0s-2-.83-5.39-2.51c-1.7-.84-3.72-1.92-6.05-3.12s-4.95-2.58-7.84-4a98.43,98.43,0,0,0-9.51-4,74.74,74.74,0,0,0-11-3,52.91,52.91,0,0,0-6-.76l-1.51-.07-1.57,0a28.11,28.11,0,0,0-3,.14,12.27,12.27,0,0,0-5.6,1.8,6.93,6.93,0,0,0-3.09,4.77,5.47,5.47,0,0,0,0,.69c0,.23,0,.57.09.76a5.19,5.19,0,0,0,.42,1.42,5.48,5.48,0,0,0,1.87,2.3,14,14,0,0,0,5.81,2.14c1,.18,2.07.27,3.1.36s2.09.07,3.11.05a33.83,33.83,0,0,0,6-.77,57,57,0,0,0,10.8-3.79c3.35-1.48,6.49-3,9.4-4.41s5.64-2.63,8.1-3.61,4.57-1.81,6.34-2.48C206,.71,208.08,0,208.08,0a.12.12,0,0,1,.15.07A.13.13,0,0,1,208.17.22Z"/><path class="cls-2" d="M208.17,0s2.05.7,5.57,2.05c1.77.67,3.91,1.5,6.34,2.48s5.18,2.23,8.1,3.61,6,2.93,9.4,4.41a57,57,0,0,0,10.8,3.79,33.83,33.83,0,0,0,6,.77c1,0,2.05,0,3.11-.05s2.07-.18,3.1-.36a14.07,14.07,0,0,0,5.81-2.14,5.48,5.48,0,0,0,1.87-2.3,5.19,5.19,0,0,0,.42-1.42c0-.19.07-.53.09-.76a5.47,5.47,0,0,0,0-.69,6.93,6.93,0,0,0-3.09-4.77,12.27,12.27,0,0,0-5.6-1.8,28.11,28.11,0,0,0-3-.14l-1.57,0L254,2.79a50.71,50.71,0,0,0-6,.76,74.74,74.74,0,0,0-11,3,98.43,98.43,0,0,0-9.51,4c-2.89,1.38-5.5,2.76-7.84,4s-4.36,2.28-6.05,3.12c-3.39,1.68-5.39,2.51-5.39,2.51a.11.11,0,0,1-.15-.06.1.1,0,0,1,0-.14l1.32-.81c.86-.53,2.13-1.3,3.72-2.32l5.76-3.63c2.22-1.4,4.78-2.93,7.65-4.48a75,75,0,0,1,9.62-4.39,57.93,57.93,0,0,1,11.44-3.07A53.3,53.3,0,0,1,253.84.6l1.62,0,1.57,0a28,28,0,0,1,3.29.26,13.23,13.23,0,0,1,6.33,2.46,8.34,8.34,0,0,1,3.3,6,7.18,7.18,0,0,1,0,.92,7.66,7.66,0,0,1-.16.84,6.77,6.77,0,0,1-.59,1.63,7,7,0,0,1-2.3,2.54,16.12,16.12,0,0,1-6.16,2.16,41.83,41.83,0,0,1-12.57.26,47.41,47.41,0,0,1-11.38-3.22c-3.46-1.45-6.57-3.09-9.45-4.55s-5.49-2.82-7.85-3.95-4.43-2.15-6.11-3C210,1.25,208.08.22,208.08.22A.12.12,0,0,1,208,.06.11.11,0,0,1,208.17,0Z"/><path class="cls-2" d="M210.86,9.91a2.74,2.74,0,1,1-2.74-2.74A2.73,2.73,0,0,1,210.86,9.91Z"/><polygon class="cls-2" points="0 9.31 143.85 7.95 143.85 10.66 0 9.31"/><polygon class="cls-2" points="413.19 9.31 272.4 10.66 272.4 7.95 413.19 9.31"/></g></g></g></svg>