<svg xmlns="http://www.w3.org/2000/svg" viewBox="0 0 267.19 40.22"><path class="cls-1" d="M173.85,9.87a4.47,4.47,0,0,0,4.7.75,4.81,4.81,0,0,0,3.22-3.46A4.88,4.88,0,0,0,180,2.83,7.36,7.36,0,0,0,175.5,1a14,14,0,0,0-5,.71,49,49,0,0,0-4.82,1.88,102.06,102.06,0,0,0-9.33,4.59c-12.16,6.75-23.14,15.44-35.29,22.59-3,1.82-6.15,3.46-9.32,5-1.64.72-3.21,1.48-4.9,2.15a35.81,35.81,0,0,1-5.22,1.6,28,28,0,0,1-5.51.67,16.23,16.23,0,0,1-5.73-.86,8.72,8.72,0,0,1-2.75-1.59,7.23,7.23,0,0,1-2-2.72,8.1,8.1,0,0,1-.54-3.21,6.33,6.33,0,0,1,1.1-3.28,13.06,13.06,0,0,1,4.44-3.87,26.41,26.41,0,0,1,5.06-2.23,28.81,28.81,0,0,1,5.36-1.18,17.45,17.45,0,0,1,5.58.1,8.58,8.58,0,0,1,2.8,1,4.73,4.73,0,0,1,2.05,2.47,4.86,4.86,0,0,1,0,3.13,5.49,5.49,0,0,1-1.75,2.44,13.87,13.87,0,0,1-5,2.29,25.92,25.92,0,0,1-5.23.84l0-.31a31.55,31.55,0,0,0,5-1.4,12.46,12.46,0,0,0,4.28-2.5A3.92,3.92,0,0,0,110,27.54a3.12,3.12,0,0,0-.15-2c-.5-1.2-2-1.79-3.51-2a22.22,22.22,0,0,0-9.65,1.56,24.25,24.25,0,0,0-4.44,2.14,11.19,11.19,0,0,0-3.34,3,3.14,3.14,0,0,0-.55,1.62,4.78,4.78,0,0,0,.33,1.93,4.67,4.67,0,0,0,2.87,2.46,13.18,13.18,0,0,0,4.56.73A25.49,25.49,0,0,0,101,36.5a32.86,32.86,0,0,0,4.82-1.34c1.57-.58,3.17-1.29,4.75-1.93,3.13-1.44,6.24-2.95,9.25-4.66,12.11-6.74,23.34-15.23,35.8-21.78a102.38,102.38,0,0,1,9.6-4.37,50,50,0,0,1,5-1.77,14.88,14.88,0,0,1,5.36-.6,8.29,8.29,0,0,1,5,2.2,5.58,5.58,0,0,1,1.86,5,5.37,5.37,0,0,1-3.68,3.79,4.87,4.87,0,0,1-5.08-1Z"/><path class="cls-1" d="M95.27,10.09a4.86,4.86,0,0,1-5.07,1,5.38,5.38,0,0,1-3.69-3.79,5.61,5.61,0,0,1,1.86-5,8.29,8.29,0,0,1,5-2.2,14.85,14.85,0,0,1,5.36.6,48.29,48.29,0,0,1,5,1.77,102.38,102.38,0,0,1,9.6,4.37c12.46,6.55,23.69,15,35.8,21.78,3,1.71,6.12,3.22,9.25,4.66,1.58.64,3.18,1.35,4.75,1.93a32.86,32.86,0,0,0,4.82,1.34,25.58,25.58,0,0,0,4.89.53,13.24,13.24,0,0,0,4.57-.73,4.26,4.26,0,0,0,3.19-4.39,3,3,0,0,0-.55-1.62,11.19,11.19,0,0,0-3.34-3,24.25,24.25,0,0,0-4.44-2.14,22.22,22.22,0,0,0-9.65-1.56c-1.55.18-3,.77-3.51,2a3.12,3.12,0,0,0-.15,2,3.92,3.92,0,0,0,1.15,1.84,12.46,12.46,0,0,0,4.28,2.5,31.55,31.55,0,0,0,5,1.4l0,.31a26,26,0,0,1-5.24-.84,13.82,13.82,0,0,1-4.95-2.29A5.43,5.43,0,0,1,157.35,28a4.86,4.86,0,0,1,0-3.13,4.73,4.73,0,0,1,2-2.47,8.76,8.76,0,0,1,2.8-1,17.45,17.45,0,0,1,5.58-.1,28.81,28.81,0,0,1,5.36,1.18,26.77,26.77,0,0,1,5.07,2.23,13.12,13.12,0,0,1,4.43,3.87,6.24,6.24,0,0,1,1.1,3.28,7.92,7.92,0,0,1-.54,3.21,7.12,7.12,0,0,1-2,2.72,8.72,8.72,0,0,1-2.75,1.59,16.23,16.23,0,0,1-5.73.86,28,28,0,0,1-5.51-.67A36.19,36.19,0,0,1,162,38c-1.69-.67-3.26-1.43-4.89-2.15-3.18-1.57-6.31-3.21-9.33-5-12.14-7.15-23.13-15.84-35.29-22.59a100.8,100.8,0,0,0-9.33-4.59,49,49,0,0,0-4.82-1.88,13.93,13.93,0,0,0-5-.71A7.39,7.39,0,0,0,88.9,2.83a4.9,4.9,0,0,0-1.77,4.33,4.81,4.81,0,0,0,3.22,3.46,4.47,4.47,0,0,0,4.7-.75Z"/><path class="cls-1" d="M132,8.45a7.92,7.92,0,0,0-1.26,2.71,2.81,2.81,0,0,0,.5,2.42,3.37,3.37,0,0,0,2.23.89,4.24,4.24,0,0,0,2.41-.32,1.31,1.31,0,0,0,.74-1.37,3.41,3.41,0,0,0-.55-1.63A3,3,0,0,0,134.34,10a6.87,6.87,0,0,0-2.86-.1l-.17-.26a4.51,4.51,0,0,1,3.06-1.85A4.69,4.69,0,0,1,138.32,9a4.63,4.63,0,0,1,1.36,4.14,4.39,4.39,0,0,1-1,2.12,4.28,4.28,0,0,1-1.86,1.22,6.61,6.61,0,0,1-3.76.05,5.1,5.1,0,0,1-3.13-2.06,4.12,4.12,0,0,1-.13-3.6,7.82,7.82,0,0,1,1.95-2.62Z"/><path class="cls-1" d="M0,18.31l29.52-.83,29.53-.67c9.84-.2,19.68-.68,29.53-.52s19.69.42,29.54,1.22v.31c-9.84.93-19.68,1.34-29.52,1.62s-19.69-.05-29.53-.11l-29.53-.27L0,18.63Z"/><path class="cls-1" d="M74.44,22.64a4.17,4.17,0,0,1,4.31-2.34,5,5,0,0,1,4,3.23,6.92,6.92,0,0,1-.06,5.27A10.54,10.54,0,0,1,79.5,33a8.45,8.45,0,0,1-10.26.9,31.91,31.91,0,0,1-8-6.44C59,24.91,57.1,22.29,54.7,20.83A6.91,6.91,0,0,0,51,19.62,8.79,8.79,0,0,0,47.08,21a9,9,0,0,0-3,3,3,3,0,0,0,.23,3.51c.84.88,2.52,1,4,.63a21.21,21.21,0,0,0,4.57-1.59l.16.28a19.46,19.46,0,0,1-4.46,2.32,8.56,8.56,0,0,1-2.61.47,4.3,4.3,0,0,1-2.76-.91,4.76,4.76,0,0,1-1.05-5.61,10.57,10.57,0,0,1,3.44-4.26,10.72,10.72,0,0,1,5.17-2.23A9.3,9.3,0,0,1,56.39,18a15.36,15.36,0,0,1,4,3.63c1.11,1.32,2,2.71,3,3.94a28,28,0,0,0,6.94,6.32,7.29,7.29,0,0,0,4.06,1.27,7.55,7.55,0,0,0,4-1.56,9.5,9.5,0,0,0,3-3.41,5.67,5.67,0,0,0,.35-4.33,4.12,4.12,0,0,0-3.1-2.9,3.68,3.68,0,0,0-3.93,1.77Z"/><path class="cls-1" d="M267.19,18.63l-29.54.43-29.53.27c-9.84.06-19.69.41-29.53.11s-19.68-.69-29.52-1.62v-.31c9.85-.8,19.7-1.07,29.54-1.22s19.69.32,29.53.52l29.52.67,29.53.83Z"/><path class="cls-1" d="M192.46,22.77A3.68,3.68,0,0,0,188.53,21a4.12,4.12,0,0,0-3.1,2.9,5.67,5.67,0,0,0,.35,4.33,9.5,9.5,0,0,0,3,3.41,7.52,7.52,0,0,0,4,1.56,7.24,7.24,0,0,0,4.05-1.27,27.88,27.88,0,0,0,6.95-6.32c1-1.23,1.88-2.62,3-3.94a15.36,15.36,0,0,1,4-3.63,9.3,9.3,0,0,1,5.62-1.36,10.76,10.76,0,0,1,5.17,2.23A10.46,10.46,0,0,1,225,23.17a4.76,4.76,0,0,1-1,5.61,4.3,4.3,0,0,1-2.76.91,8.51,8.51,0,0,1-2.61-.47,19.46,19.46,0,0,1-4.46-2.32l.15-.28a21.48,21.48,0,0,0,4.58,1.59c1.51.33,3.18.25,4-.63a3,3,0,0,0,.23-3.51,9,9,0,0,0-3-3,8.79,8.79,0,0,0-3.89-1.41,6.91,6.91,0,0,0-3.73,1.21c-2.4,1.46-4.26,4.08-6.55,6.61a31.91,31.91,0,0,1-8,6.44,8.45,8.45,0,0,1-10.26-.9,10.54,10.54,0,0,1-3.19-4.18,6.88,6.88,0,0,1-.06-5.27,5,5,0,0,1,4-3.23,4.17,4.17,0,0,1,4.31,2.34Z"/></svg>