<svg xmlns="http://www.w3.org/2000/svg" viewBox="0 0 285.67 25.92"><defs><style>.cls-1{fill:#ffe4a2;}</style></defs><title>Ресурс 2</title><g id="Шар_2" data-name="Шар 2"><g id="OBJECTS"><path class="cls-1" d="M9.16,22.2A13.32,13.32,0,0,1,4,21.31,6.66,6.66,0,0,1,.28,17.55a4.83,4.83,0,0,1-.14-2.77,5.37,5.37,0,0,1,1.39-2.41,7.54,7.54,0,0,1,5-2.22,12.26,12.26,0,0,1,5.3,1.13,45.93,45.93,0,0,1,4.67,2.47c3,1.73,6,3.49,9.09,4.9a40.71,40.71,0,0,0,9.69,3,27.09,27.09,0,0,0,5,.47,8.63,8.63,0,0,0,4.42-1,4.43,4.43,0,0,0,1.48-1.47,5.13,5.13,0,0,0,.7-2A4,4,0,0,0,45,13.9c-2.43-2-6.56-1.12-8.45,1.75l-.19-.1a6.67,6.67,0,0,1,6.76-3.87,7,7,0,0,1,2.71,1,6.22,6.22,0,0,1,2.12,2.06,5.2,5.2,0,0,1,.78,3,6.63,6.63,0,0,1-.84,2.9,6.32,6.32,0,0,1-2.07,2.26,10.46,10.46,0,0,1-5.54,1.47,24.09,24.09,0,0,1-5.4-.58,42.76,42.76,0,0,1-5.13-1.42,38.66,38.66,0,0,1-4.91-2.08c-3.16-1.57-6.12-3.44-9.06-5.27a45.25,45.25,0,0,0-4.45-2.54,11.2,11.2,0,0,0-4.76-1.19A6.64,6.64,0,0,0,2.15,13,4.54,4.54,0,0,0,.88,15a4,4,0,0,0,0,2.36,6.09,6.09,0,0,0,3.26,3.57,12.8,12.8,0,0,0,5,1.07Z"/><path class="cls-1" d="M53.38,15a1.8,1.8,0,0,0-.56,2.46,1.07,1.07,0,0,0,1.74.07.91.91,0,0,0,.29-.8,1.49,1.49,0,0,0-.23-.48,1.92,1.92,0,0,0-2.18-.48l-.18-.11a1.58,1.58,0,0,1,.46-.93,2.44,2.44,0,0,1,1-.53,2.75,2.75,0,0,1,2.26.35,2.67,2.67,0,0,1,.87,1A2.43,2.43,0,0,1,57,16.92a3.08,3.08,0,0,1-1.36,1.93,2.87,2.87,0,0,1-2.17.47,2.45,2.45,0,0,1-1-.55,2.35,2.35,0,0,1-.58-.93A2.74,2.74,0,0,1,52,15.92a2.47,2.47,0,0,1,.55-.76,1.87,1.87,0,0,1,.81-.4Z"/><path class="cls-1" d="M59.94,11.7a4.8,4.8,0,0,0-.1,5.3,3.07,3.07,0,0,0,4.35.63,1.89,1.89,0,0,0,.75-1.82,6.13,6.13,0,0,0-.84-2.21,8.39,8.39,0,0,0-.75-1.15,5.78,5.78,0,0,0-.79-1,2.39,2.39,0,0,0-.44-.29,1,1,0,0,0-.47-.09,1,1,0,0,0-.93.64h-.21a1.41,1.41,0,0,1,.81-1.57,2,2,0,0,1,1-.24,2.65,2.65,0,0,1,1,.22,5.23,5.23,0,0,1,1.47,1,10.07,10.07,0,0,1,1.12,1.22,5.42,5.42,0,0,1,1.18,3.37,4,4,0,0,1-1.92,3.29,4.87,4.87,0,0,1-3.48.56A4.36,4.36,0,0,1,60,18.89a4.27,4.27,0,0,1-1.12-1.32,5.34,5.34,0,0,1,.86-6Z"/><path class="cls-1" d="M69.15,13.74a2.8,2.8,0,0,0,0,2.91,1.6,1.6,0,0,0,2.09.64,1.13,1.13,0,0,0,.66-.71,1.31,1.31,0,0,0,0-.59,1.72,1.72,0,0,0-.56-.85A1.46,1.46,0,0,0,70,14.75l-.14-.16a1.45,1.45,0,0,1,.77-.75,2.25,2.25,0,0,1,1.15-.14,2.78,2.78,0,0,1,2,1.3,2.41,2.41,0,0,1-.08,2.66,3.38,3.38,0,0,1-2,1.28,3.25,3.25,0,0,1-2.19-.23,2.83,2.83,0,0,1-1.38-1.62A3.32,3.32,0,0,1,69,13.6Z"/><path class="cls-1" d="M82.55,13.54A1.44,1.44,0,0,0,84.26,13a1.75,1.75,0,0,0,.33-1.81,2.35,2.35,0,0,0-1.65-.94,4.91,4.91,0,0,0-2,0,5.07,5.07,0,0,0-3.27,2.17,4.93,4.93,0,0,0-.56,3.84,4.73,4.73,0,0,0,2.33,3,6.47,6.47,0,0,0,3.86.64c2.69-.32,5-2,7.25-3.66,4.51-3.34,8.89-7,13.9-9.78a34.06,34.06,0,0,1,8-3.29,25.39,25.39,0,0,1,8.69-.66,18.48,18.48,0,0,1,8.35,2.86,14.12,14.12,0,0,1,3.36,3.07,9,9,0,0,1,1.74,4.4,8.77,8.77,0,0,1-.06,2.4,11.08,11.08,0,0,1-.26,1.13,8.48,8.48,0,0,1-.32,1.09,12.27,12.27,0,0,1-2.18,4.05,11,11,0,0,1-3.64,2.89,14.58,14.58,0,0,1-4.35,1.33c-.37.06-.74.1-1.11.13a10.39,10.39,0,0,1-1.15.06,11.76,11.76,0,0,1-2.31-.25A13.83,13.83,0,0,1,115,24a9.93,9.93,0,0,1-3.37-3.15,5.93,5.93,0,0,1-.87-2.27,6.79,6.79,0,0,1,2.45-6.34,6.68,6.68,0,0,1,4.32-1.37,6.42,6.42,0,0,1,2.21.51,4.22,4.22,0,0,1,1.74,1.49,4,4,0,0,1,.76,2.1,2.12,2.12,0,0,1-1,1.94l-.12-.18a1.77,1.77,0,0,0,.67-1.72,3.51,3.51,0,0,0-.81-1.77,3.57,3.57,0,0,0-1.54-1.11,5.65,5.65,0,0,0-1.92-.27A5.57,5.57,0,0,0,114,13.21a5.3,5.3,0,0,0-1.7,3.25,4.88,4.88,0,0,0,.77,3.45,8.36,8.36,0,0,0,2.86,2.46,12.52,12.52,0,0,0,3.67,1.32,8.67,8.67,0,0,0,1.89.16,8.46,8.46,0,0,0,1-.08c.33,0,.66-.08,1-.14A10.28,10.28,0,0,0,130,20.1a11.46,11.46,0,0,0,1.81-3.36,9.15,9.15,0,0,0,.29-.93c.08-.32.18-.65.23-.94a6.44,6.44,0,0,0,.07-1.81,7.1,7.1,0,0,0-1.27-3.41A12.25,12.25,0,0,0,128.35,7a16.55,16.55,0,0,0-7.45-2.73,23.4,23.4,0,0,0-8.12.46,31.58,31.58,0,0,0-7.67,3c-4.92,2.61-9.34,6.13-13.94,9.41-2.28,1.61-4.79,3.36-7.8,3.65A7.36,7.36,0,0,1,79,19.92a5.41,5.41,0,0,1-2.58-3.55,5.54,5.54,0,0,1,.74-4.29,5.59,5.59,0,0,1,3.64-2.3A5.34,5.34,0,0,1,83,9.84,2.68,2.68,0,0,1,84.89,11a2.07,2.07,0,0,1-.42,2.13,1.68,1.68,0,0,1-2,.61Z"/><path class="cls-1" d="M57,9.31a12.36,12.36,0,0,1-1.45-.49,9.81,9.81,0,0,1-1.36-.72c-.44-.26-1-.42-1.24-.91a2.43,2.43,0,0,1-.25-1.76l.17-.13a3.1,3.1,0,0,1,1.64.41c.43.22.55.74.83,1.11L56.18,8c.28.4.6.77.91,1.17Z"/><path class="cls-1" d="M62.2,7.94c-.26-.63-.46-1.28-.67-1.94a19.14,19.14,0,0,1-.46-2,4.83,4.83,0,0,1-.27-2,3.74,3.74,0,0,1,1-2H62A4.41,4.41,0,0,1,63,2a5.82,5.82,0,0,1-.16,1.94l-.38,4Z"/><path class="cls-1" d="M67.07,8.54a18.23,18.23,0,0,1,.85-2.11,19.5,19.5,0,0,1,1.14-2,5.69,5.69,0,0,1,1.4-1.82,4.11,4.11,0,0,1,2.32-.8l.13.17A5.65,5.65,0,0,1,72,4.16a8.38,8.38,0,0,1-1.6,1.41c-.53.48-1.05,1-1.57,1.49s-1,1-1.55,1.59Z"/><path class="cls-1" d="M276.51,22a12.84,12.84,0,0,0,5-1.07,6.09,6.09,0,0,0,3.26-3.57,4,4,0,0,0,0-2.36,4.54,4.54,0,0,0-1.27-2,6.64,6.64,0,0,0-4.39-1.75,11.2,11.2,0,0,0-4.76,1.19A45.25,45.25,0,0,0,269.92,15c-2.94,1.83-5.9,3.7-9.06,5.27A38.66,38.66,0,0,1,256,22.32a43.29,43.29,0,0,1-5.13,1.42,24.15,24.15,0,0,1-5.4.58,10.46,10.46,0,0,1-5.54-1.47,6.35,6.35,0,0,1-2.08-2.26,6.91,6.91,0,0,1-.84-2.9,5.29,5.29,0,0,1,.79-3,6.14,6.14,0,0,1,2.12-2.06,7,7,0,0,1,2.71-1,6.67,6.67,0,0,1,6.76,3.87l-.19.1c-1.89-2.87-6-3.74-8.45-1.75a4.07,4.07,0,0,0-1.85,3.66,5.14,5.14,0,0,0,.71,2A4.43,4.43,0,0,0,241,21.06a8.61,8.61,0,0,0,4.42,1,27.09,27.09,0,0,0,4.95-.47,40.71,40.71,0,0,0,9.69-3c3.11-1.41,6.08-3.17,9.09-4.9a45.93,45.93,0,0,1,4.67-2.47,12.26,12.26,0,0,1,5.3-1.13,7.56,7.56,0,0,1,5,2.22,5.46,5.46,0,0,1,1.39,2.41,4.83,4.83,0,0,1-.14,2.77,6.69,6.69,0,0,1-3.71,3.76,13.32,13.32,0,0,1-5.17.89Z"/><path class="cls-1" d="M232.36,14.76a1.87,1.87,0,0,1,.81.4,2.47,2.47,0,0,1,.55.76,2.74,2.74,0,0,1,.12,1.92,2.19,2.19,0,0,1-1.61,1.48,2.87,2.87,0,0,1-2.17-.47,3.09,3.09,0,0,1-1.37-1.93,2.4,2.4,0,0,1,1-2.41,2.74,2.74,0,0,1,2.25-.35,2.42,2.42,0,0,1,1,.53,1.64,1.64,0,0,1,.46.93l-.18.11a1.67,1.67,0,0,0-2.42,1,1,1,0,0,0,.29.8,1.08,1.08,0,0,0,1.75-.07,1.8,1.8,0,0,0-.56-2.46Z"/><path class="cls-1" d="M225.89,11.56a5.34,5.34,0,0,1,.86,6,4.17,4.17,0,0,1-1.13,1.32,4.24,4.24,0,0,1-1.62.73,4.86,4.86,0,0,1-3.48-.56,4,4,0,0,1-1.92-3.29,5.36,5.36,0,0,1,1.18-3.37,10.07,10.07,0,0,1,1.12-1.22,5.23,5.23,0,0,1,1.47-1,2.64,2.64,0,0,1,1-.22,2,2,0,0,1,1,.24,1.41,1.41,0,0,1,.81,1.57H225a1,1,0,0,0-.93-.64,1,1,0,0,0-.47.09,2.09,2.09,0,0,0-.44.29,5.8,5.8,0,0,0-.8,1,9.36,9.36,0,0,0-.74,1.15,5.78,5.78,0,0,0-.84,2.21,1.91,1.91,0,0,0,.74,1.82,3.09,3.09,0,0,0,4.36-.63,4.78,4.78,0,0,0-.11-5.3Z"/><path class="cls-1" d="M216.68,13.6a3.34,3.34,0,0,1,.86,3.49,2.87,2.87,0,0,1-1.38,1.62,3.26,3.26,0,0,1-2.19.23,3.38,3.38,0,0,1-2-1.28,2.44,2.44,0,0,1-.09-2.66,2.82,2.82,0,0,1,2-1.3,2.25,2.25,0,0,1,1.15.14,1.45,1.45,0,0,1,.77.75l-.14.16a1.49,1.49,0,0,0-1.29.39,1.69,1.69,0,0,0-.55.85,1.18,1.18,0,0,0,0,.59,1.13,1.13,0,0,0,.66.71,1.6,1.6,0,0,0,2.09-.64,2.82,2.82,0,0,0,0-2.91Z"/><path class="cls-1" d="M203.21,13.74a1.7,1.7,0,0,1-2-.61,2.06,2.06,0,0,1-.41-2.13,2.67,2.67,0,0,1,1.86-1.16,5.39,5.39,0,0,1,2.19-.06,5.62,5.62,0,0,1,3.64,2.3,5.54,5.54,0,0,1,.74,4.29,5.42,5.42,0,0,1-2.59,3.55,7.33,7.33,0,0,1-4.32.85c-3-.29-5.52-2-7.8-3.65-4.6-3.28-9-6.8-13.94-9.41a31.49,31.49,0,0,0-7.68-3,23.34,23.34,0,0,0-8.11-.46A16.55,16.55,0,0,0,157.32,7a12.51,12.51,0,0,0-2.8,2.67,7.19,7.19,0,0,0-1.26,3.41,6.44,6.44,0,0,0,.07,1.81c0,.29.14.62.23.94a5.9,5.9,0,0,0,.29.93,11.23,11.23,0,0,0,1.81,3.36,10.28,10.28,0,0,0,6.6,3.53c.33.06.66.11,1,.14a8.46,8.46,0,0,0,1,.08,8.67,8.67,0,0,0,1.89-.16,12.36,12.36,0,0,0,3.66-1.32,8.3,8.3,0,0,0,2.87-2.46,4.88,4.88,0,0,0,.77-3.45,5.3,5.3,0,0,0-1.7-3.25,5.57,5.57,0,0,0-3.51-1.35,5.74,5.74,0,0,0-1.93.27A3.77,3.77,0,0,0,163.92,15a1.77,1.77,0,0,0,.67,1.72l-.12.18a2.12,2.12,0,0,1-1-1.94,4,4,0,0,1,.76-2.1A4.26,4.26,0,0,1,166,11.38a6.48,6.48,0,0,1,2.22-.51,6.49,6.49,0,0,1,6.71,5.33,6.55,6.55,0,0,1,.06,2.38,6.09,6.09,0,0,1-.87,2.27A10,10,0,0,1,170.71,24a13.83,13.83,0,0,1-4.21,1.67,11.76,11.76,0,0,1-2.31.25,10.39,10.39,0,0,1-1.15-.06c-.37,0-.74-.07-1.11-.13a14.58,14.58,0,0,1-4.35-1.33,11,11,0,0,1-3.65-2.89,12.46,12.46,0,0,1-2.18-4.05c-.12-.36-.23-.72-.32-1.09a11.14,11.14,0,0,1-.25-1.13,8.77,8.77,0,0,1-.06-2.4,9,9,0,0,1,1.74-4.4,13.93,13.93,0,0,1,3.36-3.07,18.48,18.48,0,0,1,8.35-2.86,25.31,25.31,0,0,1,8.68.66,34,34,0,0,1,8,3.29c5,2.8,9.39,6.44,13.9,9.78,2.23,1.67,4.56,3.34,7.25,3.66a6.47,6.47,0,0,0,3.86-.64,4.68,4.68,0,0,0,2.32-3,4.92,4.92,0,0,0-.55-3.84,5.07,5.07,0,0,0-3.27-2.17,4.91,4.91,0,0,0-2,0,2.39,2.39,0,0,0-1.66.94A1.79,1.79,0,0,0,201.4,13a1.46,1.46,0,0,0,1.72.58Z"/><path class="cls-1" d="M228.58,9.13c.3-.4.62-.77.91-1.17l.86-1.14c.28-.37.4-.89.83-1.11a3.1,3.1,0,0,1,1.64-.41l.17.13a2.43,2.43,0,0,1-.25,1.76c-.24.49-.8.65-1.24.91a9.81,9.81,0,0,1-1.36.72,12.36,12.36,0,0,1-1.45.49Z"/><path class="cls-1" d="M223.25,7.91l-.37-4A5.83,5.83,0,0,1,222.71,2a4.55,4.55,0,0,1,.93-2h.21a3.81,3.81,0,0,1,1,2,4.83,4.83,0,0,1-.27,2,19.18,19.18,0,0,1-.47,2c-.2.66-.4,1.31-.66,1.94Z"/><path class="cls-1" d="M218.42,8.65c-.52-.55-1-1.09-1.55-1.59s-1.05-1-1.57-1.49a8.08,8.08,0,0,1-1.6-1.41A5.66,5.66,0,0,1,212.75,2l.14-.17a4.11,4.11,0,0,1,2.32.8,5.69,5.69,0,0,1,1.4,1.82,19.5,19.5,0,0,1,1.14,2,20.21,20.21,0,0,1,.85,2.11Z"/><path class="cls-1" d="M141.39,8.05l-2.68,2.82-1.35,1.42-.33.35a1.07,1.07,0,0,0-.2.22s0-.14,0-.13l.14.11.38.29,6.17,4.77-1,.12a29.23,29.23,0,0,1,2.61-3.27c.48-.51,1-1,1.52-1.45a4.72,4.72,0,0,0,.58-.51s0,0,0,0,0,.06,0,0a6.32,6.32,0,0,0-.56-.62c-.22-.22-.46-.44-.7-.66-.48-.44-1-.85-1.52-1.31a11.23,11.23,0,0,1-2.76-3.1l.13-.1a22.49,22.49,0,0,0,3.33,2.23c.59.33,1.17.7,1.75,1.1.29.2.57.42.85.65a4.66,4.66,0,0,1,.86.83,1.61,1.61,0,0,1,.35.93,1.64,1.64,0,0,1-.29,1,4.45,4.45,0,0,1-.9.88c-.51.41-1,.84-1.49,1.28a22.14,22.14,0,0,0-2.69,2.87l-.45.58-.51-.46-5.85-5.15-.36-.33a1.45,1.45,0,0,1-.22-.22.61.61,0,0,1-.12-.58,1.3,1.3,0,0,1,.42-.51l.37-.32,1.46-1.3,2.92-2.58Z"/></g></g></svg>