<svg xmlns="http://www.w3.org/2000/svg" viewBox="0 0 116.67 44.98"><defs><style>.cls-1{fill:#010004;}</style></defs><title>Ресурс 2</title><g id="Шар_2" data-name="Шар 2"><g id="OBJECTS"><path class="cls-1" d="M50.25,0a71.76,71.76,0,0,1-6.66,8.11,69.47,69.47,0,0,1-7.83,7A70.25,70.25,0,0,1,27,20.89,20.91,20.91,0,0,1,22,23a8.91,8.91,0,0,1-5.5,0,5.33,5.33,0,0,1-3.43-4.45,7.79,7.79,0,0,1,1.73-5.34A8.38,8.38,0,0,1,17,11.33a7.85,7.85,0,0,1,2.64-1.05,13.77,13.77,0,0,1,5.5,0,30.66,30.66,0,0,1,5.16,1.51q2.47.95,4.9,2c3.23,1.39,6.4,2.91,9.54,4.47C51,21.34,57.13,24.64,63.42,27.6a97.26,97.26,0,0,0,19.47,7,52.26,52.26,0,0,0,20.37,1A19.89,19.89,0,0,0,108,34.23a13.22,13.22,0,0,0,4-2.55,6.6,6.6,0,0,0,2.11-3.83,6.18,6.18,0,0,0-.92-4.21,9.26,9.26,0,0,0-3.3-3.16A13.15,13.15,0,0,0,105.42,19a26,26,0,0,0-5-.18l-2.55.24a21.76,21.76,0,0,0-2.54.32,73.85,73.85,0,0,0-19.54,6.44c-6.29,2.94-12.39,6.33-18.64,9.51a104.91,104.91,0,0,1-19.57,8A43.76,43.76,0,0,1,27,45a37.3,37.3,0,0,1-10.62-1.14A29.37,29.37,0,0,1,11.37,42c-.79-.45-1.6-.85-2.35-1.35A20.06,20.06,0,0,1,6.85,39a19.35,19.35,0,0,1-6-8.87A20.3,20.3,0,0,1,.56,19.5a18.21,18.21,0,0,1,5.21-9.18A19.49,19.49,0,0,1,25.44,6.09,19.42,19.42,0,0,0,6.22,10.78,17.42,17.42,0,0,0,1.46,19.7,19.13,19.13,0,0,0,2,29.77,18.11,18.11,0,0,0,7.73,38a18.72,18.72,0,0,0,2,1.48c.71.46,1.48.82,2.22,1.23a27.83,27.83,0,0,0,4.8,1.67A35.44,35.44,0,0,0,27,43.25a41.73,41.73,0,0,0,10.1-1.72,112.48,112.48,0,0,0,19.12-8.05c6.19-3.19,12.29-6.62,18.65-9.65A76.21,76.21,0,0,1,95,17.11a19.61,19.61,0,0,1,2.65-.35l2.67-.27a27.91,27.91,0,0,1,5.47.17,15.6,15.6,0,0,1,5.38,1.72,11.45,11.45,0,0,1,4.2,4,8.48,8.48,0,0,1,1.21,5.82,9.08,9.08,0,0,1-2.83,5.19,15.75,15.75,0,0,1-4.78,3,22.22,22.22,0,0,1-5.3,1.46,54.48,54.48,0,0,1-21.25-1.08A99.71,99.71,0,0,1,62.52,29.5c-6.36-3-12.48-6.41-18.67-9.61-3.09-1.6-6.21-3.15-9.38-4.57a49.46,49.46,0,0,0-9.65-3.54c-3.23-.68-6.9-.31-8.91,2.3a6.48,6.48,0,0,0-1.52,4.38A4.1,4.1,0,0,0,17,21.92a7.8,7.8,0,0,0,4.81.08,19.83,19.83,0,0,0,4.73-1.92,66.24,66.24,0,0,0,8.86-5.48A71.5,71.5,0,0,0,50.25,0Z"/></g></g></svg>