<svg xmlns="http://www.w3.org/2000/svg" viewBox="0 0 170.5 35.84"><defs><style>.cls-1{fill:#010004;}</style></defs><title>Ресурс 1</title><g id="Шар_2" data-name="Шар 2"><g id="OBJECTS"><path class="cls-1" d="M22.74,17.93a14,14,0,0,0-3.36.61A14,14,0,0,0,16.33,20a15.56,15.56,0,0,0-2.65,2.06,15.85,15.85,0,0,0-2.17,2.53,13.62,13.62,0,0,0-2.46,6,4.43,4.43,0,0,0,.53,2.82,2,2,0,0,0,2.22.82,3,3,0,0,0,2.08-1.68,5.84,5.84,0,0,0,.51-3,10.3,10.3,0,0,0-2.49-5.86,14.29,14.29,0,0,0-5.33-3.91A25.69,25.69,0,0,0,0,17.93a22.75,22.75,0,0,1,6.86,1.16,14.58,14.58,0,0,1,6,3.82,11.3,11.3,0,0,1,3,6.55,7.12,7.12,0,0,1-.62,3.77,4.67,4.67,0,0,1-3.11,2.52A3.75,3.75,0,0,1,10,35.61a3.55,3.55,0,0,1-1.69-1.36,5.81,5.81,0,0,1-.73-3.83,14.39,14.39,0,0,1,2.95-6.56A16.43,16.43,0,0,1,16,19.33,12.62,12.62,0,0,1,22.74,17.93Z"/><path class="cls-1" d="M0,17.92A26,26,0,0,0,6.62,16,14.26,14.26,0,0,0,12,12,10.16,10.16,0,0,0,14.4,6.12a5.71,5.71,0,0,0-.59-3,3,3,0,0,0-2.18-1.57,2,2,0,0,0-2.15,1,4.79,4.79,0,0,0-.4,2.92,16.05,16.05,0,0,0,2.51,6.09,16.76,16.76,0,0,0,4.67,4.82,8.5,8.5,0,0,0,6.48,1.49,8.48,8.48,0,0,1-6.86-.84A16.33,16.33,0,0,1,10.6,12.3a16.26,16.26,0,0,1-3-6.58,6.08,6.08,0,0,1,.53-3.87A3.54,3.54,0,0,1,11.87.05a4.53,4.53,0,0,1,3.27,2.37,7,7,0,0,1,.74,3.78,11.16,11.16,0,0,1-3,6.64,14.41,14.41,0,0,1-6,3.89A23.11,23.11,0,0,1,0,17.92Z"/><path class="cls-1" d="M147.75,17.92a14.54,14.54,0,0,0,3.37-.62,14,14,0,0,0,3-1.45,15.49,15.49,0,0,0,2.64-2.06A16.37,16.37,0,0,0,159,11.26a13.79,13.79,0,0,0,2.46-6,4.51,4.51,0,0,0-.53-2.83,2,2,0,0,0-2.22-.82,3,3,0,0,0-2.08,1.68,5.67,5.67,0,0,0-.51,3,10.34,10.34,0,0,0,2.48,5.86A14.59,14.59,0,0,0,163.92,16a26.18,26.18,0,0,0,6.58,1.88,23.08,23.08,0,0,1-6.86-1.17,14.44,14.44,0,0,1-6-3.82,11.29,11.29,0,0,1-3-6.55,7.09,7.09,0,0,1,.62-3.76A4.59,4.59,0,0,1,158.36.1a3.66,3.66,0,0,1,2.14.13,3.58,3.58,0,0,1,1.68,1.36,5.76,5.76,0,0,1,.74,3.83A14.25,14.25,0,0,1,160,12a16.1,16.1,0,0,1-5.42,4.53A12.63,12.63,0,0,1,147.75,17.92Z"/><path class="cls-1" d="M170.5,17.93a25.76,25.76,0,0,0-6.63,1.9,14.51,14.51,0,0,0-5.35,4,10.2,10.2,0,0,0-2.42,5.93,5.54,5.54,0,0,0,.59,3,3,3,0,0,0,2.17,1.56,2,2,0,0,0,2.16-1,4.91,4.91,0,0,0,.4-2.91,16,16,0,0,0-2.52-6.1,17,17,0,0,0-4.67-4.82,8.48,8.48,0,0,0-6.48-1.48,8.46,8.46,0,0,1,6.87.83,16.55,16.55,0,0,1,5.28,4.78,16.52,16.52,0,0,1,3,6.58,6.08,6.08,0,0,1-.54,3.87,3.54,3.54,0,0,1-1.56,1.5,3.62,3.62,0,0,1-2.16.31,4.57,4.57,0,0,1-3.27-2.37,7,7,0,0,1-.73-3.79,11.11,11.11,0,0,1,3-6.64,14.47,14.47,0,0,1,6-3.89A23.16,23.16,0,0,1,170.5,17.93Z"/><path class="cls-1" d="M22.74,17.92c10.42-.2,20.84-.3,31.25-.38l31.26-.12,31.25.12,15.63.14,15.62.24-15.62.25-15.63.14-31.25.11L54,18.3C43.58,18.22,33.16,18.13,22.74,17.92Z"/></g></g></svg>