<svg xmlns="http://www.w3.org/2000/svg" width="43.87" height="43.87" viewBox="0 0 43.87 43.87">
  <defs>
    <style>
      .cls-1 {
        fill: #fff;
        fill-rule: evenodd;
      }
    </style>
  </defs>
  <path id="Icon" class="cls-1" d="M1820.38,1442.21a21.945,21.945,0,1,0,21.94,21.95,21.941,21.941,0,0,0-21.94-21.95m-8.23,21.95a8.23,8.23,0,1,1,8.23,8.23,8.224,8.224,0,0,1-8.23-8.23m25.97,7.35h0l-7.6-3.15a11.042,11.042,0,0,0,0-8.4l5.23-2.17,2.37-.99a19.256,19.256,0,0,1,0,14.71m-10.39-25.1h0l-3.15,7.6a11.037,11.037,0,0,0-4.2-.83,10.856,10.856,0,0,0-4.2.84l-1.48-3.57-1.67-4.04a19.231,19.231,0,0,1,14.7,0m-25.1,10.39,4.04,1.68,3.57,1.48a10.92,10.92,0,0,0,0,8.4l-7.61,3.15a19.256,19.256,0,0,1,0-14.71m10.4,25.1,0.98-2.37,2.17-5.23a11.037,11.037,0,0,0,4.2.83,10.856,10.856,0,0,0,4.2-.84l3.15,7.61a19.231,19.231,0,0,1-14.7,0" transform="translate(-1798.44 -1442.22)"/>
</svg>
