<svg xmlns="http://www.w3.org/2000/svg" width="18.44" height="18.07" viewBox="0 0 18.44 18.07">
  <defs>
    <style>
      .cls-1 {
        fill: #fff;
        fill-rule: evenodd;
      }
    </style>
  </defs>
  <path id="Arrows" class="cls-1" d="M1218.94,3835.3l-0.7-.7a0.978,0.978,0,0,0-1.38,0l-6.86,6.86-6.86-6.86a0.978,0.978,0,0,0-1.38,0l-0.7.7a0.978,0.978,0,0,0,0,1.38l8.24,8.24a1.015,1.015,0,0,0,1.4,0l8.24-8.24A0.978,0.978,0,0,0,1218.94,3835.3Zm0,7.17-0.7-.69a0.96,0.96,0,0,0-1.38,0l-6.86,6.85-6.86-6.85a0.96,0.96,0,0,0-1.38,0l-0.7.69a0.99,0.99,0,0,0,0,1.39l8.24,8.23a0.99,0.99,0,0,0,1.4,0l8.24-8.23A0.99,0.99,0,0,0,1218.94,3842.47Z" transform="translate(-1200.78 -3834.31)"/>
</svg>
