<?xml version="1.0" encoding="iso-8859-1"?>
<!-- Generator: Adobe Illustrator 19.0.0, SVG Export Plug-In . SVG Version: 6.00 Build 0)  -->
<svg version="1.1" id="Capa_1" xmlns="http://www.w3.org/2000/svg" xmlns:xlink="http://www.w3.org/1999/xlink" x="0px" y="0px"
	 viewBox="0 0 512 512" style="enable-background:new 0 0 512 512;" xml:space="preserve">
<g>
	<g>
		<path d="M480,64h-32V32c0-17.673-14.327-32-32-32H64C46.327,0,32,14.327,32,32H16C7.163,32,0,39.163,0,48v64
			c0,8.837,7.163,16,16,16h16c0,17.673,14.327,32,32,32h352c17.673,0,32-14.327,32-32V96h32v112H256c-17.673,0-32,14.327-32,32v64
			h-16c-8.837,0-16,7.163-16,16v176c0,8.837,7.163,16,16,16h64c8.837,0,16-7.163,16-16V320c0-8.837-7.163-16-16-16h-16v-64h224
			c17.673,0,32-14.327,32-32V96C512,78.327,497.673,64,480,64z M416,128H64V32h352V128z M256,480h-32v-80h32V480z M256,368h-32v-32
			h32V368z"/>
	</g>
</g>
<g>
</g>
<g>
</g>
<g>
</g>
<g>
</g>
<g>
</g>
<g>
</g>
<g>
</g>
<g>
</g>
<g>
</g>
<g>
</g>
<g>
</g>
<g>
</g>
<g>
</g>
<g>
</g>
<g>
</g>
</svg>
