<svg version="1.0" xmlns="http://www.w3.org/2000/svg" width="353.333" height="353.333" viewBox="0 0 265 265"><path d="M128.8.5c-.2.1-3.7.5-7.8.8-10 .8-21.2 3-28.5 5.7-3.3 1.2-6.7 2.3-7.6 2.5-5.8 1.3-26.8 13.7-35.8 21.2-8.3 6.9-17.8 17.6-24.5 27.8-6.7 10.1-14.2 25.6-16.1 33-.5 1.6-.9 3.4-1.1 4-2.6 9.2-4.8 25.5-4.7 34.5.4 43.6 21.2 82.3 57.9 107.8 5.5 3.8 18.7 10.5 26.7 13.4 8 2.9 12.4 4.1 23.7 6.3 9.3 1.8 29.3 2.4 37 1 14.5-2.4 21-3.9 28.2-6.6 4.6-1.7 9.2-3.3 10.3-3.6 1.1-.4 3.1-1.4 4.4-2.5 1.3-1 2.9-1.8 3.6-1.8 1.6 0 18.2-11.1 22.2-14.8 1.7-1.6 3.5-2.7 3.9-2.3.4.3.4 0 0-.7-.5-.8 1.8-4 6.3-8.8 16.9-18.1 29.6-44 32.6-66.4.3-1.9.7-4.6 1-6 .7-3 .7-23 .1-28.5-1-8.6-1.7-12.3-3.6-19.5-1.2-4.1-2.3-8-2.4-8.5-.2-.6-.7-2.1-1.1-3.4-1.7-5.2-9.7-20.5-14.3-27.3-8-11.7-15.4-19.7-27.2-29.3-15.2-12.3-37-22.2-57.5-25.9-4.4-.9-25.2-2.5-25.7-2.1z"/></svg>